<svg xmlns="http://www.w3.org/2000/svg" xmlns:xlink="http://www.w3.org/1999/xlink" viewBox="0 0 1080 397.44"><defs><style>.cls-1{fill:none;}.cls-2{isolation:isolate;}.cls-3{font-size:151.48px;font-family:Gilroy-Bold;font-weight:700;}.cls-3,.cls-4{fill:#fff;}.cls-5{fill:#147b9e;}.cls-6{fill:#01b8f2;}.cls-7{fill:#ff41b7;}.cls-8{fill:#213b56;}.cls-9{fill:#2c4a6a;}.cls-10{fill:#1b0800;}.cls-11{fill:#1a818e;}.cls-12{mix-blend-mode:multiply;}.cls-13{fill:#d7d9dd;}.cls-14{fill:#dadada;}.cls-15{fill:#d58452;}.cls-16{fill:#26425f;}.cls-17{fill:#f9c42f;}.cls-18{fill:#b78f21;}.cls-19{fill:#172e46;}.cls-20{fill:#406f94;}.cls-21{fill:#e86f4c;}.cls-22{opacity:0.1;}.cls-23{opacity:0.3;}.cls-24{fill:#7cc4cf;}.cls-25{fill:#a6d6df;}.cls-26{fill:#c6e5ea;}.cls-27{fill:#bf5c3c;}.cls-28{fill:#833f25;}.cls-29{clip-path:url(#clip-path);}.cls-30{fill:#f6c042;}.cls-31{fill:#f77c15;}.cls-32{fill:#1e1e1e;}.cls-33{clip-path:url(#clip-path-2);}.cls-34{fill:#f9f9f9;}.cls-35{fill:#fcddbf;}.cls-36{fill:#95684c;}.cls-37{fill:#ccc;}.cls-38{fill:#ffecdc;}.cls-39{fill:#606f8c;}.cls-40{fill:#41526d;}.cls-41{fill:#eac5a7;}.cls-42{fill:#dd9785;}.cls-43{fill:#502638;}.cls-44{fill:#a01a1a;}</style><clipPath id="clip-path"><path class="cls-1" d="M104.91,79.87H258v122c0,14.26,0,61-76.56,61s-76.56-46.06-76.56-66.06S105,79.91,104.91,79.87Z"/></clipPath><clipPath id="clip-path-2"><path class="cls-1" d="M105.1,79.69h153v122c0,14.26,0,61-76.52,61s-76.52-46.06-76.52-66.06S105.19,79.73,105.1,79.69Z"/></clipPath></defs><g class="cls-2"><g id="Layer_1" data-name="Layer 1"><rect x="-10.56" y="-32.52" width="1146.24" height="480.96"/><text class="cls-3" transform="translate(277.4 277.91)">rban</text><text class="cls-3" transform="translate(641.58 277.91)">Care</text><path class="cls-4" d="M95.65,79.89H267.12s.74,118.35.74,134,0,67-86.27,67-86.27-50.62-86.27-72.6S95.65,79.7,95.65,79.89Z"/><path class="cls-5" d="M105.47,79.87H257.7v122c0,14.26,0,61-76.11,61s-76.12-46.06-76.12-66.06S105.57,79.91,105.47,79.87Z"/><rect class="cls-6" x="180.69" y="79.89" width="77.34" height="100.67"/><rect class="cls-7" x="105.19" y="79.89" width="77.34" height="100.67"/><path class="cls-8" d="M135.67,87.94A2.33,2.33,0,1,0,138,85.62,2.33,2.33,0,0,0,135.67,87.94Z"/><path class="cls-9" d="M150.16,104.32c-.28.08,3.9-23.45-12.85-15.92,8.84,4.58,12.57,16,12.57,16"/><path class="cls-9" d="M126.07,104.32c.28.08-4.78-23.45,12-15.92-8.83,4.58-11.69,16-11.69,16"/><path class="cls-10" d="M149.43,104.32s-2,13,4.38,14.61c-1.06,1.27-8.69,4.8-15.81.68Z"/><path class="cls-10" d="M127.69,104.32s2,13-4.38,14.61c1,1.27,8.69,4.8,15.81.68Z"/><path class="cls-11" d="M152.8,176l-2,24-2.06,27a2.24,2.24,0,0,1-3.69,0l-2.35-16.05.88-10.94-5.11-24Z"/><g class="cls-12"><path class="cls-13" d="M145.66,176.26l2.67,23.88-1.65,28a5.09,5.09,0,0,1-1.58-.92l-2.35-16.05.88-10.93-5.11-24Z"/></g><polygon class="cls-14" points="134.5 227.22 137.07 227.22 138.93 228.79 138.93 230.55 132.56 230.55 132.56 228.79 134.5 227.22"/><path class="cls-11" d="M130.38,176.26l.68,23.93,3.33,27s1.7,1.38,2.58-.11l2.35-16.05-.88-10.94,4.3-23.86Z"/><g class="cls-12"><path class="cls-13" d="M134.78,228.32c1.9,0,3.43.25,3.43.56h-4.93C133.28,228.57,132.89,228.32,134.78,228.32Z"/></g><path class="cls-15" d="M154.3,156.24l-.28-3.45c-1.21-14.8-5.24-21.47-6.91-23.65L147,129a2.38,2.38,0,0,1-.23-2.46l4.21,2.07a2.31,2.31,0,0,0-.17-2.36l.06.07c2.21,2.88,6,9.53,7.52,22.7l9.35-4.64,2.09,4.21Z"/><path class="cls-4" d="M158.77,140.81c-.39-15.46-12.35-20.21-12.35-20.21L144,131.81c5.39,1.76,6.46,9,6.46,9Z"/><path class="cls-4" d="M123.74,127.54s9.84,14,4.82,34.75c6.81,5.6,24.24-14.47,24.24-26.8s-6.49-14.09-9.55-15.13h-16C124.79,121.23,123.74,123.92,123.74,127.54Z"/><g class="cls-12"><path class="cls-13" d="M144.89,120.36c4.21,2.24,6.49,7.57,6.49,12.52h-3.16c-.41-7-.93-10.69-5.82-12.52Z"/></g><g class="cls-12"><path class="cls-13" d="M129.76,120.36c4.21,2.24,6.49,7.57,6.49,12.52l-1.42,1.9c-2.2-7.68-2.67-12.59-7.56-14.42Z"/></g><path class="cls-16" d="M127.27,177.73c2.37,12.89,1.49,21.29,1.49,21.29,13.88,3.15,27.07-.67,27.07-.67L152,155.59l.77-22.71c-2.89-3.48-14.55-2.81-18.1,0,2,20.54-6.43,27.45-6.43,27.45S124.89,169.69,127.27,177.73Z"/><path class="cls-9" d="M151.38,142.75c-.47,0-1.84,7-1.84,15.3s1.55,15.08,2,15.08-.31-6.75-.31-15.08S151.86,142.75,151.38,142.75Z"/><path class="cls-16" d="M146.31,120.36c4.21,2.24,6.49,7.57,6.49,12.52h-3.16c-.49-7.92-2.68-10.69-7.57-12.52Z"/><path class="cls-9" d="M145,120.36c-.47,0,5.45,3.34,5.42,9l.94,10.51c1,0,.86.84.91-10C152.26,124.19,145.45,120.36,145,120.36Z"/><path class="cls-16" d="M131.51,120.36c5.9,1.83,6.49,7.57,6.49,12.52h-3.3c.2-7.37-2-10.33-7.43-12.52Z"/><path class="cls-9" d="M130.1,120.36c-.47,0,5.44,3.34,5.42,9l.94,7.27c1,0,.9-2.18.9-6.78C137.36,124.19,130.57,120.36,130.1,120.36Z"/><g class="cls-12"><path class="cls-13" d="M136.88,141.74c0,4.55,3,8.24,6.76,8.24s6.75-3.69,6.75-8.24-3-3.51-6.75-3.51S136.88,137.2,136.88,141.74Z"/></g><g class="cls-12"><path class="cls-13" d="M136.89,141.82s0,0,0-.08c0-4.54,3-3.51,6.76-3.51s6.75-1,6.75,3.51v.08Z"/></g><path class="cls-15" d="M131.63,171.22l-6-17.57,0-.18c-2.22-12.79-1.38-21.51-.91-24.67,0-.05,0-.09,0-.12a2.16,2.16,0,0,0,0,.74l4.6-.94a2.62,2.62,0,0,1,0,1c-.43,2.91-1.21,11,.86,23l5.85,17.21Z"/><path class="cls-17" d="M169.57,139.55s-4.19,2.48-2.23,4.89,2.77-1.3,2.77-1.3Z"/><path class="cls-18" d="M168.59,143.36c-.15-.23-1.28-.53-1.28-.53a6.6,6.6,0,0,1,2.26-3.28A10.27,10.27,0,0,0,168.59,143.36Z"/><polygon class="cls-17" points="164.94 152.2 172.39 148.12 168.58 143.22 159.97 145.8 164.94 152.2"/><path class="cls-17" d="M168.58,143.22a3.92,3.92,0,0,1,1.58-4.45c2.54-1.9,6.87,3.79,6.8,5.21s-1,3.66-4.57,4.14S168.58,143.22,168.58,143.22Z"/><path class="cls-4" d="M122.74,146.21a35.2,35.2,0,0,1,2.15-23.88l8.27,6.33c-3.17,4.7-2.61,15.18-2.61,15.18S123.12,145.91,122.74,146.21Z"/><path class="cls-15" d="M133.38,120.6c2.2,1.8,1.34,2.69,6.49,2.69,3.85,0,4.25-.89,2-2.69Z"/><path class="cls-15" d="M145.9,106.32a2.42,2.42,0,1,0,2.38-2.86A2.65,2.65,0,0,0,145.9,106.32Z"/><path class="cls-15" d="M124.89,106.32a2.42,2.42,0,1,0,2.38-2.86A2.65,2.65,0,0,0,124.89,106.32Z"/><path class="cls-15" d="M135.74,121.84l5.07-.34h0c0-.35,0-3.37,0-6l-5.09,0C135.71,121.43,135.73,121.72,135.74,121.84Z"/><g class="cls-12"><path class="cls-13" d="M136.51,120.07s4.55,1.12,4.31-4.59l-5.09,0S135.48,120.07,136.51,120.07Z"/></g><path class="cls-15" d="M126.18,100.52c0,7.71,5.29,18.13,11.82,18.13s11.82-10.42,11.82-18.13-5.3-9.78-11.82-9.78S126.18,92.82,126.18,100.52Z"/><path class="cls-10" d="M129.61,98.74c-1,3.47-2.77,5.1-1.3,11.16a34.78,34.78,0,0,1-2.49-11.16Z"/><path class="cls-10" d="M147.68,109.91c0,.44,12.35-23.57-19.42-21.88,1.88,1.56-1,6.74-3,7.68-1.48,3.41,4.66,10,12.78-.47,0,0,.27,4.76,9.44,6.89C148.21,103.93,147.71,106.73,147.68,109.91Z"/><path class="cls-14" d="M141.22,113.38c0,1.39-1.44,2.52-3.22,2.52s-3.23-1.13-3.23-2.52Z"/><g class="cls-12"><polygon class="cls-13" points="136.39 107.78 136.04 106.32 135.91 107.93 134.77 111.96 138.5 112.2 135.44 111.57 136.39 107.78"/></g><path class="cls-10" d="M136.39,103.05l-2.19-.2a8.14,8.14,0,0,1-3.71.74C131.58,104.07,136.39,103.05,136.39,103.05Z"/><path class="cls-10" d="M139.12,103.05l2.19-.2a8.19,8.19,0,0,0,3.71.74C143.94,104.07,139.12,103.05,139.12,103.05Z"/><path class="cls-10" d="M133.58,106.5c0,1,.28,1.8.62,1.8s.63-.81.63-1.8-.28-1.81-.63-1.81S133.58,105.5,133.58,106.5Z"/><path class="cls-10" d="M141.15,106.5c0,1,.28,1.8.62,1.8s.63-.81.63-1.8-.28-1.81-.63-1.81S141.15,105.5,141.15,106.5Z"/><path class="cls-10" d="M134.11,104.72v1a1,1,0,0,1-1-.84C133.37,105.25,134.11,104.72,134.11,104.72Z"/><path class="cls-10" d="M141.7,104.72v1a1,1,0,0,1-.95-.84C141,105.25,141.7,104.72,141.7,104.72Z"/><path class="cls-17" d="M140,170.48s-1.29-4.17-4.22-3.14.8,2.08.8,2.08h0s2.45,2.82,3.3,2.55C140.24,171.86,140,170.48,140,170.48Z"/><polygon class="cls-17" points="127.31 163.25 130.59 170.82 136.5 168.92 135.02 160.77 127.31 163.25"/><path class="cls-17" d="M136.5,168.92a23,23,0,0,1,2.93,5.86c.91,3-4.32,3.35-5.63,2.8a6.34,6.34,0,0,1-3.21-6.76C131.37,167.27,136.5,168.92,136.5,168.92Z"/><path class="cls-9" d="M172.68,136.75v-2.34l-3.87,2c1.38,2.49.9.94,1.69.67l1.26-.43c0,2.54,3,3,3,2.25A2.22,2.22,0,0,1,172.68,136.75Z"/><path class="cls-19" d="M171.47,136.67l-1.26.42c-.34.12-.44.46-.56.63.36.35.31-.45.85-.64l1.26-.43Z"/><path class="cls-19" d="M172.68,136.75v-2.34l-.3.15v2.2a2.22,2.22,0,0,0,2,2.15c0,.18-.15.29-.38.32.39,0,.68-.09.68-.33A2.22,2.22,0,0,1,172.68,136.75Z"/><rect class="cls-9" x="174.34" y="133.53" width="1.39" height="1.49"/><rect class="cls-19" x="174.34" y="134.41" width="1.39" height="0.58"/><rect class="cls-20" x="174.34" y="133.7" width="1.39" height="0.29"/><polygon class="cls-21" points="166.97 133.42 164.28 136.35 165.22 138.18 168.81 138.18 169.4 137.08 173.33 135.09 174.52 135.09 174.52 133.42 166.97 133.42"/><g class="cls-22"><polygon class="cls-4" points="165.13 136.98 167.81 134.06 174.52 134.06 174.52 133.42 166.97 133.42 164.28 136.35 165.22 138.18 165.13 136.98"/></g><g class="cls-23"><path class="cls-4" d="M173.81,133.68a25.14,25.14,0,0,1-6.17,0,26.53,26.53,0,0,1,6.17,0Z"/></g><g class="cls-23"><path class="cls-4" d="M166.57,134.3c-.33.36-.54.71-.47.78s.41-.17.74-.53.54-.71.47-.78S166.9,133.94,166.57,134.3Z"/></g><path class="cls-24" d="M172.93,147.61h0s-3.52-2.38-3.93-8.22h-4.13L162,155.83h8.62a4.44,4.44,0,0,0,2.33-8.22Z"/><path class="cls-25" d="M172.28,147.61h0a9.45,9.45,0,0,1-3.9-7.39h-3.07L162.72,155h7.47a4,4,0,0,0,2.09-7.39Z"/><path class="cls-26" d="M168,140.67c.27-.13.16,1.69,1.08,3.59s2.44,2.89,2.17,3-1.91-.76-2.82-2.67S167.74,140.8,168,140.67Z"/><path class="cls-26" d="M167.52,140.86a.45.45,0,0,1-.3.57.46.46,0,1,1-.26-.88A.45.45,0,0,1,167.52,140.86Z"/><path class="cls-21" d="M171.09,148.66a5.67,5.67,0,0,1-2.11-1.8h-3.14l-1.21,6.93h5a2.77,2.77,0,0,0,1.47-5.13Z"/><path class="cls-4" d="M171.23,148.42h0a5.5,5.5,0,0,1-2.09-1.85H165.6l-1.31,7.51h5.33a3.06,3.06,0,0,0,1.61-5.66Zm-1.61,5.37h-5l1.21-6.93H169a5.67,5.67,0,0,0,2.11,1.8,2.77,2.77,0,0,1-1.47,5.13Z"/><path class="cls-27" d="M169,150.35a1.18,1.18,0,0,1-1.18,1.18h0a1.18,1.18,0,0,1-1.18-1.18v-1.9a1.18,1.18,0,0,1,1.18-1.18h0a1.18,1.18,0,0,1,1.18,1.18Z"/><path class="cls-28" d="M168.59,150.28a.81.81,0,0,1-.81.81h0a.81.81,0,0,1-.81-.81v-1.76a.81.81,0,0,1,.81-.81h0a.81.81,0,0,1,.81.81Z"/><rect class="cls-28" x="165.37" y="151.68" width="4.87" height="0.31"/><rect class="cls-28" x="165.37" y="152.25" width="4.87" height="0.31"/><rect class="cls-28" x="165.37" y="152.82" width="4.87" height="0.31"/><rect class="cls-9" x="164.63" y="137.92" width="4.97" height="1.53" rx="0.29"/><path class="cls-19" d="M169.39,137.93v1.18a.26.26,0,0,1-.25.26h-4a.26.26,0,0,1-.25-.26v-1.18a.29.29,0,0,0-.22.28v1a.29.29,0,0,0,.29.29h4.4a.29.29,0,0,0,.29-.29v-1A.29.29,0,0,0,169.39,137.93Z"/><path class="cls-19" d="M165.31,138.1a.08.08,0,0,0-.08.08v1.23h.17v-1.23A.09.09,0,0,0,165.31,138.1Z"/><path class="cls-19" d="M165.77,138.1a.09.09,0,0,0-.08.08v1.23h.17v-1.23A.09.09,0,0,0,165.77,138.1Z"/><path class="cls-19" d="M166.24,138.1a.08.08,0,0,0-.08.08v1.23h.17v-1.23A.09.09,0,0,0,166.24,138.1Z"/><path class="cls-19" d="M166.71,138.1a.09.09,0,0,0-.09.08v1.23h.17v-1.23A.09.09,0,0,0,166.71,138.1Z"/><path class="cls-19" d="M167.17,138.1a.09.09,0,0,0-.08.08v1.23h.17v-1.23A.09.09,0,0,0,167.17,138.1Z"/><path class="cls-19" d="M167.64,138.1a.09.09,0,0,0-.09.08v1.23h.17v-1.23A.09.09,0,0,0,167.64,138.1Z"/><rect class="cls-20" x="165.44" y="137.99" width="0.11" height="1.3"/><rect class="cls-20" x="165.91" y="137.99" width="0.11" height="1.3"/><rect class="cls-20" x="166.37" y="137.99" width="0.11" height="1.3"/><rect class="cls-20" x="166.84" y="137.99" width="0.11" height="1.3"/><rect class="cls-20" x="167.3" y="137.99" width="0.11" height="1.3"/><rect class="cls-20" x="167.77" y="137.99" width="0.11" height="1.3"/><polygon class="cls-20" points="165.08 139.29 164.97 139.19 164.97 137.99 165.08 137.99 165.08 139.29"/><path class="cls-19" d="M168.1,138.1a.09.09,0,0,0-.08.08v1.23h.17v-1.23A.09.09,0,0,0,168.1,138.1Z"/><path class="cls-19" d="M168.57,138.1a.09.09,0,0,0-.09.08v1.23h.17v-1.23A.08.08,0,0,0,168.57,138.1Z"/><path class="cls-19" d="M169,138.1a.09.09,0,0,0-.08.08v1.23h.17v-1.23A.09.09,0,0,0,169,138.1Z"/><rect class="cls-20" x="168.24" y="137.99" width="0.11" height="1.3"/><rect class="cls-20" x="168.7" y="137.99" width="0.11" height="1.3"/><rect class="cls-20" x="169.17" y="137.99" width="0.11" height="1.3"/><g class="cls-29"><rect class="cls-30" x="104.62" y="173.19" width="77.7" height="90.85"/><rect class="cls-31" x="182.32" y="173.19" width="77.7" height="90.85"/></g><path class="cls-1" d="M105.47,79.87H257.7v122c0,14.26,0,61-76.11,61s-76.12-46.06-76.12-66.06S105.57,79.91,105.47,79.87Z"/><path class="cls-4" d="M217.15,155.91a4.07,4.07,0,0,1-1.41-.25l-2-.62a2.66,2.66,0,0,1-1.29-.69.91.91,0,0,1,.06-1.31,3.45,3.45,0,0,1-2.87.43,9,9,0,0,1-2.67-1.33,38.45,38.45,0,0,1-10.69-9.95.85.85,0,0,1-.21-.51c0-.29.27-.49.51-.65a35.06,35.06,0,0,0,7.93-7.35l-9.8,3.46a1.45,1.45,0,0,1-1.15.07,1.42,1.42,0,0,1-.51-.71,30.21,30.21,0,0,1-2.13-7.86,1.78,1.78,0,0,1,0-.89c.24-.55.93-.71,1.52-.82A19.57,19.57,0,0,0,199,124.5l-6.75.09a1.3,1.3,0,0,1-1.17-.38,1.26,1.26,0,0,1-.12-.79,18.88,18.88,0,0,1,1.3-5.54,1.46,1.46,0,0,1,.61-.84,1.58,1.58,0,0,1,1,0c5.84,1,11.76-.38,17.32-2.1,1.54-.47,1.85-.52,3.11.51l3.57,2.89L225,124.1l9.42,7.64a3.77,3.77,0,0,1,1,1,3.52,3.52,0,0,1,.27,1.77c-.21,7.12-3.28,13.84-6.82,20a3.55,3.55,0,0,1-1.13,1.35,3.3,3.3,0,0,1-1.34.36,30.58,30.58,0,0,1-5.41.14l4.25-6.15-6.45,4.86a3.46,3.46,0,0,1-1.44.76Z"/><path class="cls-4" d="M227.77,110.16a10.25,10.25,0,0,1,2.6,1.25c.88.6,1.4.3,2-.33a29.4,29.4,0,0,0,5.14-7.69,24.35,24.35,0,0,1,3.77-6A7.15,7.15,0,0,1,246,95.12c.79-.06,1.13.2,1.25,1,.39,2.86-.87,5-2.81,6.87-2.13,2-4.44,3.83-6.63,5.78a17.77,17.77,0,0,0-3.49,4.14,1.25,1.25,0,0,0,.18,1.78,12.84,12.84,0,0,1,3,5.15,6.19,6.19,0,0,1-1,5.77c-.86.59-1.34-.17-1.85-.58q-7.47-6-14.91-12.07c-.3-.25-.69-.45-.67-.93a6.68,6.68,0,0,1,4.51-2.46A11.54,11.54,0,0,1,227.77,110.16Z"/><path class="cls-4" d="M236.41,131.83h0c-.14.07-.28,0-.4-.12L214.38,114.2c-.22-.18-.47-.42-.42-.7s.35-.42.61-.51a6.49,6.49,0,0,1,2.77-.26,4.43,4.43,0,0,1,2.1,1.29l5,4.06,10,8.1a8,8,0,0,1,1.82,1.86,4,4,0,0,1,.29,3.58A.45.45,0,0,1,236.41,131.83Z"/><path class="cls-32" d="M142.51,239.7a27,27,0,1,1,27-27A27.05,27.05,0,0,1,142.51,239.7Zm0-50a23,23,0,1,0,23,23A23,23,0,0,0,142.51,189.71Z"/><path class="cls-32" d="M148.75,208c-1.17,0-2.56-3.09-6.65-3.09-2.53,0-4.07,1.53-5.63,2.51s-16.46.68-16.46.68c-4.29,2.34-.59,7-.59,7,12.28-6.82,20.37,2,20.37,8.67a18.58,18.58,0,0,1-4.29,11.38c8.18,2.93,13.06.39,13.06.39s-4.29-4.56-4.29-10a14.16,14.16,0,0,1,7.79-12.27c5.51-2.39,13.45,2.92,13.45,2.92l.78-6.82S149.92,208,148.75,208Zm-6.63,7.6a4.48,4.48,0,1,1,4.49-4.48A4.48,4.48,0,0,1,142.12,215.61Z"/><g class="cls-33"><polygon class="cls-34" points="201.36 252.42 201.36 269.06 237.91 266.61 240.1 244.78 201.36 252.42"/><path class="cls-35" d="M217.16,207.41h0l.45.32a4.75,4.75,0,0,1,1.14,1c.51.6.89,1,3,1.13a5.07,5.07,0,0,0,3.93-1.15,4.72,4.72,0,0,1,1-.65c1.52-.61,3.29-2.89,3.62-6.46a.42.42,0,0,1-.17-.18.59.59,0,0,1-.07-.31,1.38,1.38,0,0,1,.11-.57,1.67,1.67,0,0,0,0,.55.55.55,0,0,0,.11.23.31.31,0,0,0,.18.09h0a1.31,1.31,0,0,0,.89-.12,1,1,0,0,0,.46-.76,3.91,3.91,0,0,1,.68-1.47,3.71,3.71,0,0,0,.76-2.08c0-.72-.07-1.19-.31-1.38a.8.8,0,0,0-.65-.1h0l-.11,0h0c-.31,0-.51.4-.66.85a1.7,1.7,0,0,1,.36-.29.85.85,0,0,1,.64-.15.69.69,0,0,1,.44.44.68.68,0,0,0-.45-.38.77.77,0,0,0-.55.2,1.86,1.86,0,0,0-.41.43,1.54,1.54,0,0,0-.2.38q-.07.3-.12.57c0,.16-.07.32-.1.46-.13.59-.18.9-.21,1.13s0,.22-.05.32-.17.28-.28.28h0a.31.31,0,0,1-.25-.34s.1-1.44.21-2.38a2,2,0,0,0-.16-1.06,2.31,2.31,0,0,1-.18-.92,5.2,5.2,0,0,0-.83-3.13h0a13.22,13.22,0,0,0-7.14-2.44,9.45,9.45,0,0,0-7.1,3h0a8.36,8.36,0,0,0-.6,3.16,3.65,3.65,0,0,1-.09.94,4,4,0,0,0-.07.88c0,.28,0,.54.06.77a3.67,3.67,0,0,1,0,.7,8.67,8.67,0,0,0,.21,1.19,7.35,7.35,0,0,1,.19,1.19h0v2.56a5.55,5.55,0,0,0,2.21,3.49Z"/><path class="cls-35" d="M231.12,199.21a.64.64,0,0,1,.18-.25.65.65,0,0,0,.17-.2.91.91,0,0,0,.11-.51.73.73,0,0,0-.28-.46.64.64,0,0,1,.35.37.76.76,0,0,0,.55-.78.7.7,0,0,1-.09.54.88.88,0,0,1-.42.36.85.85,0,0,1-.1.54.9.9,0,0,1-.2.23l0,0a1,1,0,0,1,.32.23.65.65,0,0,1,.13.44.55.55,0,0,0-.18-.39.84.84,0,0,0-.36-.19l-.06.08a1.6,1.6,0,0,0-.14.53A.94.94,0,0,1,231.12,199.21Z"/><path class="cls-35" d="M217.65,204a2.56,2.56,0,0,0,.36.72,2.1,2.1,0,0,1-.43-.7,2.18,2.18,0,0,1-.15-.8,1.8,1.8,0,0,1,.22-.79,2.28,2.28,0,0,1,.48-.67,3.06,3.06,0,0,0-.41.69,1.94,1.94,0,0,0-.19.77A2.31,2.31,0,0,0,217.65,204Z"/><path class="cls-35" d="M223.87,206.28a3.66,3.66,0,0,0-.56-.1,9.68,9.68,0,0,0-2.24,0,6,6,0,0,0-1.1.24A3.59,3.59,0,0,1,221,206a5.6,5.6,0,0,1,1.15-.11,5.48,5.48,0,0,1,1.15.13,3.51,3.51,0,0,1,1.07.39A3.58,3.58,0,0,0,223.87,206.28Z"/><path class="cls-35" d="M224,204.13a4.86,4.86,0,0,1-1.92.48,4.8,4.8,0,0,1-1.95-.33,2.89,2.89,0,0,1-1.5-1.17,4,4,0,0,0,.85-.05q.42-.06.84-.15a3.27,3.27,0,0,1,.88,0,7.91,7.91,0,0,0,.84,0,5.93,5.93,0,0,0,.83-.12,3.42,3.42,0,0,1,.45,0c.16,0,.3,0,.44,0l.85.1c.29,0,.57.06.86.07A3.79,3.79,0,0,1,224,204.13Z"/><path class="cls-35" d="M227.19,203.41a2.1,2.1,0,0,1-.43.7,3.46,3.46,0,0,0,.36-.72,2.35,2.35,0,0,0,.12-.78,1.94,1.94,0,0,0-.19-.77,3.69,3.69,0,0,0-.41-.69,2.38,2.38,0,0,1,.48.66,2,2,0,0,1,.22.8A2.22,2.22,0,0,1,227.19,203.41Z"/><path class="cls-35" d="M228.22,195.72c-.08-.08-.15-.17-.22-.25a2.32,2.32,0,0,0-.43-.5,2.42,2.42,0,0,0-1.22-.48,3.31,3.31,0,0,0-1.33.09,2.49,2.49,0,0,0-1.11.72,2.18,2.18,0,0,1,1.07-.81,3.28,3.28,0,0,1,1.39-.13,2.45,2.45,0,0,1,1.27.54,2.65,2.65,0,0,1,.42.53c.12.17.24.38.46.45A.52.52,0,0,1,228.22,195.72Z"/><path class="cls-35" d="M226.51,192.88a3.22,3.22,0,0,1,2.51,1.41c0,.06,0,.12-.1.08a2.85,2.85,0,0,0-1.6-.56,14.82,14.82,0,0,0-2.38.28l-.77,0a.34.34,0,0,1-.33-.33C223.88,193,224.13,192.72,226.51,192.88Z"/><path class="cls-35" d="M223.93,195.59h0a1.87,1.87,0,0,0,.33-.27,2.48,2.48,0,0,1,1.91-.74c1.5,0,1.73.86,1.74.9v0l0,0a2.13,2.13,0,0,1-1.47.44h-.15a7.22,7.22,0,0,1-1.15-.12,2.61,2.61,0,0,0-.42,0,4.57,4.57,0,0,1-.75-.06h0a.08.08,0,0,0,0,.08.32.32,0,0,0,.08.2.73.73,0,0,0,.4.23,4.15,4.15,0,0,0,1,.14,4.23,4.23,0,0,1-1-.09.9.9,0,0,1-.45-.24.48.48,0,0,1-.13-.23A.23.23,0,0,1,223.93,195.59Z"/><path class="cls-35" d="M220.87,195.62a1,1,0,0,0-.26-.6,1,1,0,0,1,.36.59,2,2,0,0,1,0,.69c-.08.46-.21.88-.32,1.32s-.22.87-.31,1.31a1.39,1.39,0,0,0,0,.64,1,1,0,0,0,.34.56,1,1,0,0,1-.44-.53.79.79,0,0,1,0-.22,1.37,1.37,0,0,0-.51.79.93.93,0,0,0,.06.47.55.55,0,0,0,.28.28.55.55,0,0,1,.46-.27,1.13,1.13,0,0,1,.56.14c.18.08.33.21.46.28a1.26,1.26,0,0,0,.49.09,1.71,1.71,0,0,0,1-.29l.24-.13a.67.67,0,0,1,.28-.1.81.81,0,0,1,.31,0,.32.32,0,0,1,.21.17.65.65,0,0,0,.38-.18.65.65,0,0,0,.12-.46,1.25,1.25,0,0,0-.43-.9,1.25,1.25,0,0,1,.53.9.69.69,0,0,1-.12.53.74.74,0,0,1-.53.27h-.06l0-.07c0-.1-.21-.13-.36-.11a.58.58,0,0,0-.22.08L223,201a3.89,3.89,0,0,1-.5.25,1.28,1.28,0,0,1-.28.07,1.46,1.46,0,0,1-.29,0,1.28,1.28,0,0,1-.57-.13c-.18-.1-.3-.21-.45-.28a1.08,1.08,0,0,0-.47-.13.4.4,0,0,0-.35.21l0,.07-.06,0a.61.61,0,0,1-.43-.39,1,1,0,0,1,0-.54,1,1,0,0,1,.26-.47,1.43,1.43,0,0,1,.35-.3,3.85,3.85,0,0,1,0-.48,10.11,10.11,0,0,1,.27-1.33l.18-.65c.06-.22.13-.44.18-.65A2,2,0,0,0,220.87,195.62Z"/><path class="cls-35" d="M215.41,194.27a3,3,0,0,1,2.38-1.36c2.24-.12,2.48.11,2.49.9a.33.33,0,0,1-.32.33h-.72c-.8,0-1-.39-2.22-.34a2.81,2.81,0,0,0-1.52.53C215.44,194.38,215.37,194.32,215.41,194.27Z"/><path class="cls-35" d="M215.91,195.72a.5.5,0,0,1-.29.16c.22-.07.33-.27.45-.45a2.73,2.73,0,0,1,.4-.53,2.24,2.24,0,0,1,1.24-.53,3,3,0,0,1,1.36.12,2.13,2.13,0,0,1,1.05.81,2.4,2.4,0,0,0-1.08-.72,3.21,3.21,0,0,0-1.31-.09,2.28,2.28,0,0,0-1.19.48,2.93,2.93,0,0,0-.42.5A2.32,2.32,0,0,1,215.91,195.72Z"/><path class="cls-35" d="M218.82,216.65c.54-3.37,6.09-6.33,7.18-6.78a23,23,0,0,0,3.71-2.44v-2.25a6,6,0,0,1-2.87,3.14,4.15,4.15,0,0,0-1,.63,5.14,5.14,0,0,1-3.63,1.21h-.48c-2.24-.1-2.66-.6-3.2-1.22a4.43,4.43,0,0,0-1.08-1l-.25-.18.1.79h0c.19,1.74.23,3.28.23,3.3V212h0a9.33,9.33,0,0,1-.21,1.83,10.58,10.58,0,0,0,0-1.69l-1,.57a5,5,0,0,0,.87,1.27,3.54,3.54,0,0,1,.79,2.92C218.23,216.77,218.52,216.7,218.82,216.65Z"/><path class="cls-4" d="M211.42,195.44a4.44,4.44,0,0,1-.76-1.17,6.64,6.64,0,0,1-.44-1.3,10.12,10.12,0,0,1-.22-1.34,12.12,12.12,0,0,0,.29,1.33,6.36,6.36,0,0,0,.49,1.25,4.28,4.28,0,0,0,.79,1.09,2.21,2.21,0,0,0,1.09.63,1,1,0,0,1,.52-.22l-.14-1.43h0s0,0,0-.05l0-.44a.91.91,0,0,1-.11.16,1.07,1.07,0,0,1-.61.32,1,1,0,0,0,.52-.37,1,1,0,0,0,.16-.54l-.26-2.63c0-.15-.09-.19-.21-.1a2,2,0,0,1-.22.16,1.64,1.64,0,0,1-1,.21,1.63,1.63,0,0,0,1-.31,1.5,1.5,0,0,0,.43-.8h0v0h0a7.83,7.83,0,0,1,.59-1.19.66.66,0,0,0,0-.71h0a1.26,1.26,0,0,1-.18-.46,3.08,3.08,0,0,0-.27-.86,2.43,2.43,0,0,0-.6-.68,3.3,3.3,0,0,0-.81-.49,3.43,3.43,0,0,1,.85.44,2.38,2.38,0,0,1,.67.67,2.86,2.86,0,0,1,.36.87,1,1,0,0,0,.18.38c.06.08.3.11.57-.22a9.92,9.92,0,0,1,2.07-2,.29.29,0,0,0-.06-.51l-.23-.12a3.38,3.38,0,0,1-.87-1,7.94,7.94,0,0,0-.74-1.08,4.88,4.88,0,0,0-1-.92,4.93,4.93,0,0,1,1,.88,8.08,8.08,0,0,1,.8,1,3.26,3.26,0,0,0,.88.93,1.29,1.29,0,0,0,.58.22A1.85,1.85,0,0,0,217,185a.17.17,0,0,0,.1,0c.21-.11.43-.22.66-.32a.59.59,0,0,0,.33-.79,1.78,1.78,0,0,0-.28-.45c-.26-.32-.63-.59-.89-.95a5.32,5.32,0,0,1-1-2.37,5.2,5.2,0,0,0,1.1,2.29c.27.33.64.57.94.91a2,2,0,0,1,.34.49.79.79,0,0,0,.89.38,11.16,11.16,0,0,1,3.06-.34h0a.57.57,0,0,0,.57-.4c.11-.33.27-.64.39-1a6.74,6.74,0,0,0,.44-1.45,14.86,14.86,0,0,0,.14-1.51c0-.5.06-1,0-1.52,0,.51,0,1,0,1.53s0,1-.08,1.52a6.58,6.58,0,0,1-.37,1.5l-.25.66a.55.55,0,0,0,.48.72,12.83,12.83,0,0,1,2.9.7.45.45,0,0,0,.57-.25h0a2.2,2.2,0,0,1,.32-.53,5.07,5.07,0,0,1,.94-.75,5,5,0,0,0,.83-.82,5.58,5.58,0,0,0,.62-1,6.37,6.37,0,0,1-.56,1,4.75,4.75,0,0,1-.8.88,4.29,4.29,0,0,0-.86.77,1.54,1.54,0,0,0-.26.49h0a.5.5,0,0,0,.26.62l.35.18a.61.61,0,0,0,.7-.11,2.45,2.45,0,0,1,.67-.47,3.77,3.77,0,0,1,1.36-.33l.7,0a5.25,5.25,0,0,0,.68-.08,2.86,2.86,0,0,0,1.22-.57,2.92,2.92,0,0,1-1.21.63,3.87,3.87,0,0,1-.68.12l-.69,0a3.5,3.5,0,0,0-1.29.37,2.25,2.25,0,0,0-.49.37.4.4,0,0,0,.07.64l.53.37a1.08,1.08,0,0,0,.67.22,1.92,1.92,0,0,0,.32,0,3.52,3.52,0,0,0,.78-.24,6.6,6.6,0,0,0,1.42-.85,6.29,6.29,0,0,1,1.53-.72l.81-.23.41-.11.21-.06.12,0-.12,0-.2.07-.41.12-.8.26a6,6,0,0,0-1.47.76,6.12,6.12,0,0,1-1.41.92,4,4,0,0,1-.81.3c-.44.1.53,1,.89,1.38h0a1.52,1.52,0,0,0,1,.46,4,4,0,0,0,1.22-.2,10.15,10.15,0,0,1,1.22-.38,2.86,2.86,0,0,1,1.27,0,2.78,2.78,0,0,0-1.25.06,8.45,8.45,0,0,0-1.19.43,5.31,5.31,0,0,1-1.27.27c-.51.05,0,.77,0,.82a2.88,2.88,0,0,0,1,.93,5.31,5.31,0,0,0,1.29.56c.46.13.94.23,1.4.37a4.81,4.81,0,0,1,1.29.62,4.73,4.73,0,0,0-1.31-.55c-.46-.13-.94-.2-1.42-.31a6.06,6.06,0,0,1-1.36-.52,4.53,4.53,0,0,1-.46-.3.25.25,0,0,0-.41.18l0,.56a1.29,1.29,0,0,0,.17.69l.09.11a1,1,0,0,0,.5.33,2.39,2.39,0,0,0,.66.06,4.09,4.09,0,0,1,.7,0,.73.73,0,0,1,.35.12,1.85,1.85,0,0,1,.24.25,1.27,1.27,0,0,0,.25.21c.09.05.2.08.31.13a2.08,2.08,0,0,1,.9,1,2.07,2.07,0,0,0-.93-.92,2.08,2.08,0,0,1-.32-.12,1,1,0,0,1-.28-.21,1,1,0,0,0-.24-.22.62.62,0,0,0-.3-.09,3.94,3.94,0,0,0-.67,0,2.9,2.9,0,0,1-.72,0,.84.84,0,0,1-.55-.28c-.23-.32-.24,1.52-.24,1.52h0l0,1.71a1,1,0,0,1,.82.16c.31.25.44.77.41,1.59a3.51,3.51,0,0,1-.24,1.17,4.54,4.54,0,0,0,1.66-.67,2.82,2.82,0,0,0,.72-.7c.2-.28.39-.58.6-.86a7.37,7.37,0,0,1,.68-.8c.13-.12.26-.24.4-.35s.29-.21.42-.33a6.05,6.05,0,0,0,1.21-1.67,6.2,6.2,0,0,1-1.16,1.72c-.13.12-.28.23-.41.34a3.24,3.24,0,0,0-.38.36,7.1,7.1,0,0,0-.65.8l-.56.88a3.22,3.22,0,0,1-.75.77,4.89,4.89,0,0,1-1.91.8,7.78,7.78,0,0,1-.44.75c-.1.15-.19.3-.28.45.77-.19,3.26-.92,4.23-2.48a9.13,9.13,0,0,1,1.75-2,3.9,3.9,0,0,0,1.38-1.8,10.89,10.89,0,0,0,.13-3.26,22,22,0,0,1,0-2.93c.17-2.05-1.21-3.85-3.6-4.71a63.43,63.43,0,0,1-6.22-2.95h0c-.43-.22-.86-.45-1.3-.65a7.24,7.24,0,0,0-1.38-.47c-.23-.06-.48-.09-.72-.15a5.33,5.33,0,0,1-.71-.22,7.71,7.71,0,0,1-1.32-.65,8,8,0,0,0,1.34.59,5.71,5.71,0,0,0,.71.19c.24.05.49.07.73.11a7.93,7.93,0,0,1,1.44.42l1,.46c-.29-.59-1.28-1.94-4.34-2.68l-1.68-.42c-2.81-.71-4-1-5.66-.33a15.6,15.6,0,0,1-1.72.57c-.41.12-.8.23-1.21.39h.55a6.24,6.24,0,0,0,1.77-.19c.58-.15,1.16-.3,1.76-.4a4.6,4.6,0,0,1,.91-.08,5.49,5.49,0,0,1,.9.09,5.45,5.45,0,0,0-.9-.06,5.53,5.53,0,0,0-.9.11c-.58.12-1.16.3-1.74.46a6.45,6.45,0,0,1-1.81.27,6.36,6.36,0,0,0-.88,0,2,2,0,0,0-.55.15,11.3,11.3,0,0,0-1.58,1l-.63.46c-1.95,1.45-3,2.25-2.87,3.4a6,6,0,0,1-.58,3.75,1.18,1.18,0,0,0,0,.94,2.49,2.49,0,0,0,.65.88l.43.37a3.11,3.11,0,0,1,.4.41,2,2,0,0,1,.49,1,1.92,1.92,0,0,0-.54-1,3.07,3.07,0,0,0-.42-.38c-.15-.12-.31-.22-.46-.35a2.67,2.67,0,0,1-.74-.89,1.49,1.49,0,0,1-.14-.55,3,3,0,0,0,.17,1.93,8.1,8.1,0,0,1,.33,1.52c0,.1,0,.22,0,.35.08,1.67.31,6.07,3.33,6.61a1.18,1.18,0,0,1,.15-.49A2.52,2.52,0,0,1,211.42,195.44Zm24.73-12.35a4.56,4.56,0,0,1,.9.4,8.92,8.92,0,0,1,.82.54,3.74,3.74,0,0,1,1.15,1.53,4.86,4.86,0,0,1,.32,1.84,6,6,0,0,0-.46-1.78,3.81,3.81,0,0,0-1.14-1.44,6.88,6.88,0,0,0-1.64-1c-.3-.12-.61-.23-.91-.36s-.59-.29-.86-.45A16.5,16.5,0,0,0,236.15,183.09Z"/><path class="cls-4" d="M226.35,189.35a15.31,15.31,0,0,1,2.35.93,11.38,11.38,0,0,1,2.12,1.35,8.32,8.32,0,0,1,.9.88,5,5,0,0,1,.44.59l.09-2.85a2.21,2.21,0,0,0-.43-1.4,12,12,0,0,0-9.6-4.79h-.28a9.54,9.54,0,0,0-8.9,5.51,1.35,1.35,0,0,0-.12.69,12.74,12.74,0,0,1,2.47-3.15,9.85,9.85,0,0,1,3.91-2.27,9.26,9.26,0,0,1,2.27-.36,11.79,11.79,0,0,1,2.3.12,10.42,10.42,0,0,1,2.21.58,13.36,13.36,0,0,1,2,1,13.79,13.79,0,0,0-2.06-1,10.36,10.36,0,0,0-2.21-.55,12.4,12.4,0,0,0-2.28-.08,8.92,8.92,0,0,0-2.24.39,9.68,9.68,0,0,0-3.81,2.28,12.19,12.19,0,0,0-2.2,2.82,2.29,2.29,0,0,0-.29,1.38l.22,2.29a8.39,8.39,0,0,1,.62-1,8.93,8.93,0,0,1,1.17-1.37,8.15,8.15,0,0,1,1.42-1.12,9.61,9.61,0,0,1,1.63-.83,9.79,9.79,0,0,0-1.59.88,8.42,8.42,0,0,0-1.36,1.16,8.54,8.54,0,0,0-1.1,1.38l-.24.4a3.42,3.42,0,0,0-.41,2h0c1.53-4.34,5.54-5.91,8.89-5.91a14.15,14.15,0,0,1,8.18,3.13,5.06,5.06,0,0,1,1.65,2l0-.79a5,5,0,0,0-.62-.95,7,7,0,0,0-.85-.87,10.64,10.64,0,0,0-2-1.39,15.7,15.7,0,0,0-2.31-1l-1.21-.37-1.23-.29,1.24.26Z"/><path class="cls-35" d="M214.28,199.23l-.1,0c-.21-.14-.32-.72-.38-1.2a.69.69,0,0,0-.05.24,1.27,1.27,0,0,0,.05.39.76.76,0,0,0,.09.18.68.68,0,0,1,.07.2,1.41,1.41,0,0,1,0,.41,2.57,2.57,0,0,0-.07-.4l0-.08a.47.47,0,0,0-.16.18.83.83,0,0,0-.07.27,1,1,0,0,1,0-.29.51.51,0,0,1,.17-.22l0,0a.84.84,0,0,1-.09-.19.94.94,0,0,1,0-.41h0a.29.29,0,0,1-.13-.14.75.75,0,0,1-.07-.18.92.92,0,0,1,0-.37,1,1,0,0,0,.06.36.61.61,0,0,0,.18.26.49.49,0,0,1,.08-.21q0-.16,0-.3a2.51,2.51,0,0,0-.31-1,2.54,2.54,0,0,1-.23-.66.63.63,0,0,0-.41.18,1.35,1.35,0,0,0-.16,1.19,3.34,3.34,0,0,0,.69,1.58,2.14,2.14,0,0,1,.5,1.26c0,.6.17,1,.39,1.14a.59.59,0,0,0,.43.09,7.71,7.71,0,0,0-.19-1.19C214.4,199.91,214.33,199.58,214.28,199.23Z"/><path class="cls-4" d="M223.74,203h-.42l-.41.06a7.35,7.35,0,0,1-.86.14,6.42,6.42,0,0,1-.88,0,3.88,3.88,0,0,0-.83,0,4.74,4.74,0,0,1-1.72,0,5.75,5.75,0,0,0,1.69.58,8.36,8.36,0,0,0,1.73.14,7.23,7.23,0,0,0,1.71-.26,11,11,0,0,0,1.71-.62A9,9,0,0,1,223.74,203Z"/><path class="cls-36" d="M213.47,195.85a2.3,2.3,0,0,0,.23.67,2.76,2.76,0,0,1,.33,1.09,4.38,4.38,0,0,0,.24,1.24c0-.14,0-.35,0-.54s0-.51-.06-.79a3.84,3.84,0,0,1,.07-.94,3.31,3.31,0,0,0,.08-.88,8.64,8.64,0,0,1,.37-2.52A9,9,0,0,0,213.47,195.85Z"/><path class="cls-36" d="M232.09,195.32a4.06,4.06,0,0,0-1.79-2.74l-.29-.22a6.62,6.62,0,0,1,.51,2.74,2,2,0,0,0,.17.82,2.14,2.14,0,0,1,.17,1.18c-.11.94-.2,2.36-.2,2.37v0s0,0,0,0,0-.19.05-.31.08-.54.21-1.14c0-.14.07-.3.1-.46l.09-.45h0a0,0,0,0,1,0,0C231.3,196.29,231.55,195.49,232.09,195.32Z"/><path class="cls-35" d="M200.46,234.06a1.07,1.07,0,0,0,.21.64c.26.22.55.51.83.79a8.58,8.58,0,0,0,.88.83,2.52,2.52,0,0,1,.91,1c.18.37.65,1.15.74,1.31a11,11,0,0,1,1.14,0l1,.09c-.19-.35-.34-.64-.46-.88a5.77,5.77,0,0,0-.7-1.17c-.14-.16-.32-.35-.51-.54a8.39,8.39,0,0,1-.69-.75,3.43,3.43,0,0,0-.58-.54c-.18-.15-.4-.33-.6-.53a3.8,3.8,0,0,0-.49-.41l0,.08a1.69,1.69,0,0,1-.74.57h-.05c-.23,0-.51-.23-.84-.5Z"/><path class="cls-35" d="M201.49,238.88l1.16.12,1.09-.35c-.16-.26-.54-.9-.7-1.23a2.28,2.28,0,0,0-.82-.9,7.94,7.94,0,0,1-.92-.85c-.28-.28-.56-.57-.82-.79a9.26,9.26,0,0,1-.94-.67,2.09,2.09,0,0,0-.37-.26,1.11,1.11,0,0,1-.45.69.51.51,0,0,1-.29.1.34.34,0,0,1-.17-.05l-.77-.53a1,1,0,0,0,.49.81,21.5,21.5,0,0,1,1.71,1.59l.15.15a6.17,6.17,0,0,1,1.07,1.61C201.13,238.55,201.38,238.78,201.49,238.88Z"/><path class="cls-37" d="M205.54,252.75c.74-.38,6.27-3.56,6.33-3.59h0l.18-.11h0a25.42,25.42,0,0,0,2.67-1.87c-.76.28-1.73.6-3.1,1l-.38.12a10.8,10.8,0,0,1-3.27.57h-.27a9.65,9.65,0,0,0-1.25,1.51,6.62,6.62,0,0,1-1.09,1.29,1.37,1.37,0,0,0-.61.89.36.36,0,0,0,.1.32A1.45,1.45,0,0,0,205.54,252.75Z"/><path class="cls-35" d="M208.39,252.55a3.17,3.17,0,0,1,.44.23,9.8,9.8,0,0,0,1.8.8l1.75.59c-.27-1.92-.49-4-.56-4.68-.73.42-3.39,1.94-5,2.84a2.54,2.54,0,0,0,.92.14A2.22,2.22,0,0,1,208.39,252.55Z"/><path class="cls-35" d="M220.51,245.72a2.14,2.14,0,0,1,1.05.53,25.41,25.41,0,0,1,2.26-1.53c.74-.4,2.72-1.2,3.08-1.35a7.1,7.1,0,0,1,.84-1.53,5.94,5.94,0,0,1,2.6-1.18v-.3c-.47,0-2.06.06-4.1,0a22.69,22.69,0,0,1-4.85-.4,4.08,4.08,0,0,0-2.11,0l-.22,0a22.55,22.55,0,0,1-3.15.07h-.1a3.87,3.87,0,0,0-3.26,2c-.5.75-1,1.48-1.41,2.15-1,1.46-1.72,2.62-2.15,3.18s-.81,1-1,1.21a10.64,10.64,0,0,0,3.21-.55l.38-.12c1.88-.61,3-1,3.88-1.34h0a21,21,0,0,1,3.53-1.13,1.86,1.86,0,0,1,1.31.13A.46.46,0,0,0,220.51,245.72Z"/><path class="cls-35" d="M199,238.61l2.05.22-.35-.34a14.82,14.82,0,0,1-1.48-1.3l-.38-.36a3.09,3.09,0,0,0-.8-.56l0,0-.07-.05a1.32,1.32,0,0,1-.78.39.6.6,0,0,1-.39-.15c-.25-.2-.41-.34-.49-.42l0,.09a1.05,1.05,0,0,0,.23.79,10.12,10.12,0,0,0,1.07,1,.82.82,0,0,1,1.09.19Z"/><path class="cls-4" d="M204,235.25a8,8,0,0,0,.67.72c.19.2.38.39.52.55a5.81,5.81,0,0,1,.73,1.23l.55,1,1.83.19.32,0c-.14-.68-.72-3.68-.87-4.39l-.07-.34h0l-4,.64A2,2,0,0,1,204,235.25Z"/><path class="cls-4" d="M207.54,233.39c-.1-.49-.25-1.24-.31-1.56l-3.87.63a18.12,18.12,0,0,0,.26,2.18l4-.64c0-.14,0-.21-.09-.45Z"/><path class="cls-4" d="M247.91,236.7c-.27.8-.57,1.58-.91,2.36q.44-1.19.78-2.4a15.64,15.64,0,0,0,.5-2.43h0a19.28,19.28,0,0,0-.54-6.22c0,.29-.07.57-.12.86-.08.56-.18,1.12-.29,1.68s-.24,1.11-.39,1.66a11.36,11.36,0,0,1-.53,1.62,10.4,10.4,0,0,0,.46-1.63c.13-.56.23-1.11.32-1.67s.17-1.12.23-1.68.1-1.11.11-1.67h0v0a25.1,25.1,0,0,0-.82-7.23,7.25,7.25,0,0,0-2.32-3.51,8.51,8.51,0,0,0-2.53.52,12.28,12.28,0,0,0-2.4,1.14,11.78,11.78,0,0,1,2.35-1.26,9.36,9.36,0,0,1,2.29-.63,7.86,7.86,0,0,0-3.77-1.65,8.54,8.54,0,0,1-3.35-1.47,9.69,9.69,0,0,0-2-1,19.44,19.44,0,0,1-3.2-1.41c-.13.14-.43.45-.82.8a13.06,13.06,0,0,0,2.56,1.22,2.85,2.85,0,0,1,.7.28,1.17,1.17,0,0,1,.3.24,1.89,1.89,0,0,0,.26.24,1.94,1.94,0,0,0,.68.22l.72.19a11.72,11.72,0,0,1,1.4.51c.45.19.89.42,1.34.62a4.66,4.66,0,0,0,1.41.41,2.89,2.89,0,0,1,1.38.51,2.93,2.93,0,0,0-1.38-.48,5,5,0,0,1-1.43-.39c-.46-.2-.9-.42-1.35-.61a14.38,14.38,0,0,0-1.4-.47l-.72-.18a2.21,2.21,0,0,1-.73-.23,1.68,1.68,0,0,1-.27-.26,1.86,1.86,0,0,0-.28-.21,3.87,3.87,0,0,0-.67-.26,12.18,12.18,0,0,1-2.67-1.22,11.75,11.75,0,0,1-1,.81c-.26.17-.54.39-.84.63a11.29,11.29,0,0,1-3.44,2.07c-1.3.41-3,1.14-3.86,1.5a15.7,15.7,0,0,1,2.86.38,24.09,24.09,0,0,0,4.22.26.16.16,0,0,1,.14.06.18.18,0,0,1,0,.14,15.76,15.76,0,0,1-.89,2.73c-.65,1.48-3.1,8.72-3.34,11-.07.58-.13,1.17-.2,1.75a40.79,40.79,0,0,0-.38,4.47c0,1.42,0,2.44,0,2.72l2.16.07c2.07,0,3.67,0,4.11,0a6.09,6.09,0,0,1,.86-2.43c.11-.21.23-.43.34-.67a21.85,21.85,0,0,1-.52-2.43,4.39,4.39,0,0,1,.26-2.48,7.52,7.52,0,0,0,.46-2.41,20.52,20.52,0,0,0,0-2.48,20.6,20.6,0,0,1,.07,2.48,7.38,7.38,0,0,1-.41,2.46,4.39,4.39,0,0,0-.18,2.41,19.63,19.63,0,0,0,.5,2.08l0-.07c.21-.45.39-.79.54-1.06a3.47,3.47,0,0,0,.56-2,7.18,7.18,0,0,1,.44-2,11,11,0,0,0,.65-3.23h0a14,14,0,0,1,.44-2.16c.08-.36.18-.71.25-1.06l.22-1.07a4.3,4.3,0,0,1,.34-1.05,2.46,2.46,0,0,1,.31-.48l.37-.42q.72-.84,1.38-1.74c-.42.61-.86,1.21-1.33,1.78l-.36.43a3.64,3.64,0,0,0-.28.47,4,4,0,0,0-.3,1l-.18,1.08c-.07.36-.15.71-.23,1.07a15.94,15.94,0,0,0-.36,2.14,9,9,0,0,1-.12,1.21,8,8,0,0,0,.73-.81,8.42,8.42,0,0,0,.74-1.27,4.78,4.78,0,0,1,.9-1.2,9.65,9.65,0,0,1,1.13-1,10.52,10.52,0,0,0-1.08,1,4.92,4.92,0,0,0-.83,1.21,7.63,7.63,0,0,1-.69,1.33,8.26,8.26,0,0,1-1,1.14c-.13.6-.3,1.13-.45,1.63a7,7,0,0,0-.44,1.92,3.61,3.61,0,0,1-.59,2.08c-.15.27-.33.6-.53,1s-.39.78-.56,1.11a5.54,5.54,0,0,0-.85,2.45v.39a1,1,0,0,1,.24,0,2.59,2.59,0,0,1,.67-1.47,3.4,3.4,0,0,1,1.51-.91,3.23,3.23,0,0,0-1.4,1,2.35,2.35,0,0,0-.52,1.36c.49,0,1,0,1.45-.08a10.18,10.18,0,0,0,2-.49l.48-.2.48-.22a9.12,9.12,0,0,1,1-.35,8.21,8.21,0,0,1,2.09-.33,8.14,8.14,0,0,0-2.07.39,9,9,0,0,0-1,.38l-.46.23-.49.22a10.91,10.91,0,0,1-2.05.57c-.71.1-1.43.07-2.1.21,0,0-2.05.46-2.54,1.1a6.49,6.49,0,0,0-.72,1.28,5.19,5.19,0,0,1,1-.13,11.63,11.63,0,0,1,1.32,0,25.09,25.09,0,0,1,2.59.32,25.05,25.05,0,0,0-2.6-.19c-.43,0-.87,0-1.3,0a4.57,4.57,0,0,0-1.23.26s-2.33.93-3.11,1.36a25.19,25.19,0,0,0-2.17,1.47c.67.52,1.32,1,2,1.5a16.54,16.54,0,0,0,2.36,1.32,13.06,13.06,0,0,0,2.59.84,11.44,11.44,0,0,0,2.74.21,12.06,12.06,0,0,1-2.75-.14,12.5,12.5,0,0,1-2.63-.8,15.58,15.58,0,0,1-2.43-1.27c-.74-.46-1.44-1-2.13-1.5h0l-.09-.07a2.25,2.25,0,0,0-1-.53.77.77,0,0,1-.37-.11,1.08,1.08,0,0,0-.24-.1,4.25,4.25,0,0,0-.42,3.17,18.49,18.49,0,0,0,.67,2.15,4.68,4.68,0,0,1,.43,1.67,9,9,0,0,0,2,4.56,3.66,3.66,0,0,0,3.45,1.26,9.48,9.48,0,0,1,3.24-.52,12.05,12.05,0,0,0,5.86-1.89,6.28,6.28,0,0,1,2.18-.68c1.3-.25,2.65-.51,3.24-1.69.36-.72,1.36-2.5,2.51-4.56,2-3.64,4.55-8.17,5-9.4a12.21,12.21,0,0,0,.3-4.74C248.25,235.64,248.09,236.17,247.91,236.7Z"/><path class="cls-4" d="M203.35,252.91a11.66,11.66,0,0,1-4.73-1.53h0a8.79,8.79,0,0,0-.83-.51,2.94,2.94,0,0,0-.93-.27,9.46,9.46,0,0,0-2,0,9.62,9.62,0,0,1,2-.14,2.91,2.91,0,0,1,1,.23h0a3.15,3.15,0,0,1-.35-.52c-1.13-2.13-.78-3.92,1.31-6.86l.81-1.14c1.19-1.69,1.8-2.55,2.51-3l-5-.53h0c-.51-.06-1-.14-1.54-.15a6.55,6.55,0,0,0-1.65.15,6,6,0,0,0-1.54.61,7.56,7.56,0,0,0-1.31,1,7.54,7.54,0,0,1,1.27-1.05,5.88,5.88,0,0,1,1.54-.68,6.45,6.45,0,0,1,1.7-.22,13.6,13.6,0,0,1,1.56.09.91.91,0,0,1,.13-.33,10.19,10.19,0,0,1-1.06-1,1.31,1.31,0,0,1-.28-1,.85.85,0,0,1,.43-.57c.62-.36.93-.12,1-.05l.77.6a3.68,3.68,0,0,1,.85.6l.38.36c.29.28.67.64,1,.91a4.82,4.82,0,0,0-.74-1l-.15-.15a22.65,22.65,0,0,0-1.68-1.56,1.18,1.18,0,0,1-.59-1.12,1.11,1.11,0,0,1,.83-.73.88.88,0,0,1,.72.13,3.71,3.71,0,0,1,.94.55c.17.14.35.27.5.38a.83.83,0,0,1,.24-.88,1.13,1.13,0,0,1,.81-.35.76.76,0,0,1,.47.18,6,6,0,0,1,1.1.81,5.3,5.3,0,0,0,.58.51,20.32,20.32,0,0,1-.15-6c0-.58.14-1.15.23-1.76a33.47,33.47,0,0,0,.4-3.6,9.06,9.06,0,0,1,2.6-5.58l-.2.11-1.27.73c-.27.16-.47.3-.69.45a16,16,0,0,1-1.61,1c-.19.11-.39.21-.57.3-1,.53-1.91,1-2.24,1.93a6.94,6.94,0,0,1-.35.8,3.86,3.86,0,0,0-.25,1.55,2.51,2.51,0,0,0,.18.81,1.32,1.32,0,0,0,.23.35c.08.1.21.2.31.31a7.33,7.33,0,0,1,1,1.47,16.33,16.33,0,0,1,.74,1.59c-.24-.53-.51-1.05-.8-1.56a7,7,0,0,0-1-1.41c-.1-.11-.21-.19-.32-.3a1.51,1.51,0,0,1-.26-.38,2.44,2.44,0,0,1-.23-.87,3.86,3.86,0,0,1,0-.76,8.51,8.51,0,0,0-.91,2,17.49,17.49,0,0,1-2.07,4.37,1.93,1.93,0,0,0-.15,1.32,2.47,2.47,0,0,0,.88,1.41,2.6,2.6,0,0,1-1-1.38,2.37,2.37,0,0,1-.1-.84,3.19,3.19,0,0,1-.89.83,3.85,3.85,0,0,0-1.43,2.19,8.5,8.5,0,0,1-.78,1.71c-.12.17-.24.36-.37.57l.21-.08a4.6,4.6,0,0,1,.89-.21,5.43,5.43,0,0,1,.9,0,2.59,2.59,0,0,1,.88.16,2.87,2.87,0,0,0-.88-.1,5.29,5.29,0,0,0-.88.11,4,4,0,0,0-.83.26,1.49,1.49,0,0,0-.6.41c-.92,1.53-1.91,3.47-1.77,4.21a4.05,4.05,0,0,1-.43,1.85,9.15,9.15,0,0,0-.54,1.74l.14-.28a4,4,0,0,1,1.1-1.15,11.8,11.8,0,0,1,1.38-.8,11.94,11.94,0,0,1,1.46-.64,11.83,11.83,0,0,0-1.43.7,15,15,0,0,0-1.33.84,3.61,3.61,0,0,0-1,1.15,2.2,2.2,0,0,0-.25.69,1.29,1.29,0,0,0,.06.68c.15.26.3.58.47,1,.71,1.54,1.77,3.88,3.81,4.28a19.27,19.27,0,0,1,4.17,1.56,15.77,15.77,0,0,0,2.95,1.17,4.3,4.3,0,0,0,3-.46Z"/><path class="cls-4" d="M205.2,251.51a6.51,6.51,0,0,0,1-1.24,9.65,9.65,0,0,1,1.33-1.59,17.46,17.46,0,0,0,1.22-1.39c.43-.56,1.22-1.77,2.14-3.17.44-.67.91-1.4,1.41-2.14a4.47,4.47,0,0,1,2.94-2.13h-.16c-.49,0-4-.35-6.8-.63-1.52-.16-2.84-.29-3.16-.31a11.57,11.57,0,0,0-1.26,0l-1.18.39c-.85.29-1.43,1.1-2.82,3.08l-.81,1.14c-2.05,2.87-2.37,4.54-1.29,6.6a3.17,3.17,0,0,0,1,1.07h0a11.4,11.4,0,0,0,4.62,1.49l.74.13,0,0,.08,0a.93.93,0,0,0,.3.09.68.68,0,0,1-.05-.32A1.61,1.61,0,0,1,205.2,251.51Z"/><path class="cls-4" d="M203.7,226.93c-.09.6-.18,1.17-.23,1.75a26.36,26.36,0,0,0-.13,3.52l2.52-.41a13.43,13.43,0,0,1,0-2.69,13.22,13.22,0,0,1,.58-2.78c.29-.92.81-1.73,1.13-2.62a19.71,19.71,0,0,0,.83-2.71,18.45,18.45,0,0,1-.77,2.73c-.3.91-.8,1.73-1.06,2.64a13,13,0,0,0-.5,2.76,12.85,12.85,0,0,0,0,2.63l1.13-.19a.2.2,0,0,1,.22.15c.05.25.22,1.1.33,1.63l0,.16.14.71.07.35c.15.74.79,4,.88,4.46,2.57.26,5.73.57,6.17.57s.81.13.9.23a21.46,21.46,0,0,0,3-.07l.22,0a4.36,4.36,0,0,1,2.24,0,10.63,10.63,0,0,0,2.35.3c0-.28,0-1.29,0-2.7a41.33,41.33,0,0,1,.39-4.5c.06-.58.13-1.16.2-1.75.24-2.26,2.71-9.55,3.36-11a14.93,14.93,0,0,0,.84-2.57,22.49,22.49,0,0,1-4.17-.27,19.17,19.17,0,0,0-3.87-.42,9,9,0,0,0-2.83.39,1.92,1.92,0,0,1-1.66-.3c-.75-.61-1.05-1.87-.89-3.74a15.33,15.33,0,0,0-2,.72,5.41,5.41,0,0,0-1.4.9,6.73,6.73,0,0,0-1.08,1.3c-.62,1-1.06,2-1.67,3,.58-1,1-2,1.55-3a6.62,6.62,0,0,1,1.06-1.37h0c-1,.53-1.83,1.08-2.51,1.52l-1,.6-1,.57a8.94,8.94,0,0,0-3.18,6A30.93,30.93,0,0,1,203.7,226.93Zm22.45-8.68a.69.69,0,1,1-.73.69A.7.7,0,0,1,226.15,218.25Zm-3.73,11.33a.7.7,0,1,1-.72.7A.71.71,0,0,1,222.42,229.58Zm-10.86-10.23a.69.69,0,1,1-.73.69A.7.7,0,0,1,211.56,219.35Zm-1.95,11.56a.73.73,0,1,1-.72-.69A.71.71,0,0,1,209.61,230.91Z"/><path class="cls-4" d="M219,245.76a20.94,20.94,0,0,0-3.45,1.11,26.44,26.44,0,0,1-3.48,2.47c.26,2.59.84,7.52,1.25,8.17s4.43,3.44,6.56,4.85l6.37-3-.26-.48a2.21,2.21,0,0,1-.59.08,4.39,4.39,0,0,1-3-1.45,9.25,9.25,0,0,1-2.06-4.74,4.71,4.71,0,0,0-.42-1.57,19.26,19.26,0,0,1-.67-2.18,4.49,4.49,0,0,1,.4-3.28A5.25,5.25,0,0,0,219,245.76Z"/><path class="cls-38" d="M202,233.92l0-.07a4.9,4.9,0,0,0-.45-.29l0,0a.47.47,0,0,0-.29-.11.91.91,0,0,0-.61.28.51.51,0,0,0-.16.21l.08.07c.3.24.6.48.78.46A1.49,1.49,0,0,0,202,233.92Z"/><path class="cls-38" d="M198.64,234.53c.24-.16.43-.49.38-.66a2.46,2.46,0,0,0-.36-.18l0,0a.61.61,0,0,0-.49-.08.86.86,0,0,0-.58.45c.1.08.39.28.8.55C198.43,234.65,198.56,234.59,198.64,234.53Z"/><path class="cls-38" d="M197.6,238.2a.43.43,0,0,0-.13.25l1.17.12-.22-.3C198.3,238.09,198.11,238,197.6,238.2Z"/><path class="cls-38" d="M197.84,236.11l-.63-.5s-.17-.18-.64.1a.82.82,0,0,0-.22.19,6.73,6.73,0,0,0,.52.44C197.22,236.62,197.57,236.34,197.84,236.11Z"/><path class="cls-39" d="M216.3,216.66a1.6,1.6,0,0,0,1.33.27q0-.09,0-.24a1.6,1.6,0,0,1-1.09-.3,1.69,1.69,0,0,1-.4-.49,2.3,2.3,0,0,1-.18-.58,2.28,2.28,0,0,0,.23.56,1.4,1.4,0,0,0,.41.43,1.48,1.48,0,0,0,1.05.19,3.23,3.23,0,0,0-.76-2.4,4.47,4.47,0,0,1-1.25-2.51,10.61,10.61,0,0,0-.15,1.36V213h0C215.29,215.33,215.82,216.27,216.3,216.66Z"/><path class="cls-40" d="M217.26,211.8c0-.32,0-1.63-.21-3.09a2.89,2.89,0,0,0-1,1.47,3.7,3.7,0,0,0,.12,2.24Z"/><path class="cls-39" d="M226.11,210.11a19.79,19.79,0,0,0-3.87,2.36c-1.28,1-2.83,2.51-3.13,4.13a8.69,8.69,0,0,1,1.51-.09l.5,0h0s2.59-1.16,4.35-1.72a10.88,10.88,0,0,0,3.35-2c.31-.24.59-.46.85-.64a14.35,14.35,0,0,0,2-1.73l-.15-.43c-.5.45-1,.87-1.55,1.27s-1.16.88-1.75,1.31c.56-.46,1.12-.93,1.66-1.4s1.06-.94,1.53-1.43a5.31,5.31,0,0,0-1.15-1.79,16.58,16.58,0,0,1-1.34,1,17.8,17.8,0,0,1-1.56,1q.76-.51,1.47-1.08a16.36,16.36,0,0,0,1.24-1.11l-.16-.13A22.72,22.72,0,0,1,226.11,210.11Z"/><path class="cls-39" d="M204.2,238.76a10.88,10.88,0,0,0-1.8,1.24,27.48,27.48,0,0,0-2.06,2.73c-.64,1-1.77,2.74-2.07,3.27a5,5,0,0,0-.61,2.34,10.4,10.4,0,0,0,.26,2.11,5.15,5.15,0,0,1-.88-2.6,6.3,6.3,0,0,1,1-3c.43-.71,1.14-1.8,1.76-2.61s1.34-1.89,1.76-2.34a2.36,2.36,0,0,1,1.25-.81A10,10,0,0,1,204.2,238.76Z"/><path class="cls-39" d="M219.83,245.61a4.58,4.58,0,0,0-.46,3.31c.47,1.78,1,3,1.07,3.62a10.51,10.51,0,0,0,1.13,3.71,4.84,4.84,0,0,0,2.31,2.18,5.93,5.93,0,0,0,1.57.36,1.57,1.57,0,0,0,.63-.05l.38.61a14.91,14.91,0,0,1-3-.47,6.29,6.29,0,0,1-2.87-3.26,6.37,6.37,0,0,1-.7-2.58,4,4,0,0,0-.36-1.6,12.83,12.83,0,0,1-.9-3.34,5.57,5.57,0,0,1,.37-2.43Z"/><polygon class="cls-39" points="207.77 234.09 207.93 234.7 204 235.38 203.52 234.83 203.7 234.75 207.77 234.09"/><path class="cls-41" d="M229.68,191.91s-3.81-2.77-7.71-2.55-6.61,2.46-6.88,3.1l-.13.47-.16.12a15.33,15.33,0,0,0-.35,2.5,14.61,14.61,0,0,1-.18,2s.27,1.28.1,1.43a.1.1,0,0,1-.16,0l-.05-.05-.36-1.87-.48-1.26a2.72,2.72,0,0,0-.52.12c-.32.1-.28.31-.3,1a1.78,1.78,0,0,0,.24,1s0-.23-.08-.85c-.07-.81.46-.89.46-.89a4,4,0,0,0,.4,1,3.46,3.46,0,0,1,.17.77l0,.07c-.15-.1-.19-.47-.19-.47a.87.87,0,0,0,.12.77.81.81,0,0,0,.13.56.63.63,0,0,0-.08.52.53.53,0,0,1,.19-.33,1.49,1.49,0,0,1,.14.36.83.83,0,0,0,.05-.29.69.69,0,0,0,.13.29l.24,1.4c-.47.07-.63-.58-.63-.58l.1.66a.71.71,0,0,0,.89.58s.08,1.45.05,2.45a4.77,4.77,0,0,0,1.11,2.37,6.67,6.67,0,0,1-.6-1.87,29.39,29.39,0,0,1,0-3.27c0-.73-.39-2-.48-3s.19-1.25.14-2.45a12,12,0,0,1,.4-2.93.63.63,0,0,1,.2-.33,10.63,10.63,0,0,1,6.11-2.55,12.63,12.63,0,0,1,8.23,2.79Z"/><path class="cls-41" d="M229.87,204.74a8.16,8.16,0,0,1-.67,1.18,16,16,0,0,1-1.13,1.4,3.7,3.7,0,0,1-1.47,1c-.45.12-.49.28-1.19.77a4.74,4.74,0,0,1-2,.86,9.8,9.8,0,0,1-3.52-.1c-.82-.18-1.44-1.13-1.85-1.55a4.62,4.62,0,0,0-1-.71l.33,4.32-1.32.78a6.87,6.87,0,0,0,1.17,1.55,2.54,2.54,0,0,1,.54,1.71,8.23,8.23,0,0,1-.07,1.12l.45-.16,0,.12.86-.26a6,6,0,0,1,1.38-2.75,24.64,24.64,0,0,1,3.52-2.76,20.54,20.54,0,0,1,2.16-1.19,16.92,16.92,0,0,0,2.32-1.44l1.42-1.1V206l.05,0Zm-.52,2.7a23,23,0,0,1-2.51,1.79c-1,.52-2.5,1.26-3.75,2a11.19,11.19,0,0,0-3.57,3.16,5.9,5.9,0,0,0-.87,1.92l-.32.06c0-.15,0-.33,0-.57a3.65,3.65,0,0,0-.47-1.51s0-.25.17-1.17a32.17,32.17,0,0,0-.12-3.73,5.06,5.06,0,0,0,1.31.94,8.35,8.35,0,0,0,2.77.19,5.88,5.88,0,0,0,3.73-1c1-.76,1.3-.69,2.12-1.35a11.67,11.67,0,0,0,1.49-1.56Z"/><path class="cls-41" d="M218.13,201.8a3.44,3.44,0,0,0-.12,3,2.23,2.23,0,0,1-.53-1.43A2.44,2.44,0,0,1,218.13,201.8Z"/><path class="cls-41" d="M226.64,201.15a3.14,3.14,0,0,1,.38,1.47,3.58,3.58,0,0,1-.26,1.49,2.26,2.26,0,0,0,.52-1.52A2.54,2.54,0,0,0,226.64,201.15Z"/><path class="cls-42" d="M220,206.39a2.81,2.81,0,0,1,2-.81,3.1,3.1,0,0,1,2.45.84A5.13,5.13,0,0,0,222,206,5.65,5.65,0,0,0,220,206.39Z"/><path class="cls-41" d="M231.74,195.93a1.29,1.29,0,0,1,.83-.24c.46,0,.49.42.52.86a4.16,4.16,0,0,1-.26,1.67c-.23.53-.9,1.19-1,1.9s-.3,1.08-.78,1.16-.83,0-.8-.71a1.57,1.57,0,0,0-.07.63,21.06,21.06,0,0,1-.36,2.35c-.27,1.28-.52,2.06-.52,2.06a8.52,8.52,0,0,0,.95-2.4c.25-1.26.28-1.56.28-1.56a2.21,2.21,0,0,0,1-.25,1.33,1.33,0,0,0,.56-.9,2.16,2.16,0,0,1,.26-.68l.83-1.52a2.38,2.38,0,0,0,.33-1c0-.45.15-1.17-.33-1.62a1,1,0,0,0-1.21-.13C231.82,195.59,231.74,195.93,231.74,195.93Z"/><path class="cls-41" d="M233,196.4a.51.51,0,0,0-.7-.11,2.32,2.32,0,0,0-.81.91l-.12.49a.56.56,0,0,1,.28.32,1,1,0,0,0,.52-.63.63.63,0,0,1,0,.51.93.93,0,0,1-.44.44.77.77,0,0,1-.25.72.74.74,0,0,1,.27.7.72.72,0,0,0-.5-.44.59.59,0,0,0-.24.47,1.28,1.28,0,0,1,.15-.64,1.24,1.24,0,0,0,.37-.53,2,2,0,0,0,0-.4,1.16,1.16,0,0,0-.13-.26.41.41,0,0,0-.11-.11,5.9,5.9,0,0,0-.14.58c-.06.32-.15.62-.17.78s-.09.62-.41.59a1.87,1.87,0,0,0,.22-.6l.42-2.24a1.84,1.84,0,0,1,.63-.76C232.33,196,232.76,195.84,233,196.4Z"/><path class="cls-41" d="M226.25,240.37a22.69,22.69,0,0,1-4.85-.4,4.08,4.08,0,0,0-2.11,0l-.22,0a22.55,22.55,0,0,1-3.15.07h-.1a3.87,3.87,0,0,0-3.26,2c-.5.75-1,1.48-1.41,2.15-1,1.46-1.72,2.62-2.15,3.18s-.81,1-1,1.21a10.64,10.64,0,0,0,3.21-.55l.38-.12c1.88-.61,3-1,3.88-1.34h0a21,21,0,0,1,3.53-1.13,1.86,1.86,0,0,1,1.31.13.46.46,0,0,0,.24.08,2.14,2.14,0,0,1,1.05.53,25.41,25.41,0,0,1,2.26-1.53c.74-.4,2.72-1.2,3.08-1.35a7.1,7.1,0,0,1,.84-1.53,5.94,5.94,0,0,1,2.6-1.18v-.3C229.88,240.38,228.29,240.42,226.25,240.37Zm.33,2.66a15.6,15.6,0,0,0-3.28,1.6l-1.66,1.22a3.35,3.35,0,0,0-2.14-.78,28,28,0,0,0-5.42,1.61c-1.67.58-5.18,1.54-5.18,1.54a50.37,50.37,0,0,0,3.45-4.75c1.09-1.86,2.3-3,3.37-3.18a27.69,27.69,0,0,0,2.81,0,15.16,15.16,0,0,1,2.44-.11,24.78,24.78,0,0,0,3.42.35c1.48,0,4.67.08,4.67.08S226.6,241.36,226.58,243Z"/><path class="cls-41" d="M211.82,249.49c-.73.42-3.39,1.94-5,2.84a2.54,2.54,0,0,0,.92.14,2.22,2.22,0,0,1,.64.08,3.17,3.17,0,0,1,.44.23,9.8,9.8,0,0,0,1.8.8l1.75.59C212.11,252.25,211.89,250.16,211.82,249.49Zm-2.34,3c-.31-.18-1-.56-1-.56l2.92-1.57.4,3.06S209.79,252.65,209.48,252.47Z"/><path class="cls-41" d="M206.08,238.34l-1.91,0a13.66,13.66,0,0,0-.87-1.43c-.5-.72-.86-.69-1.05-.93s-.92-.85-1.24-1.17a1.41,1.41,0,0,1-.38-.65l-.24-.23a2.82,2.82,0,0,0,0,.6c.05.11,1.19,1.19,1.21,1.23s1.13.94,1.25,1.12.89,1.48.89,1.48l-1.07.39a.46.46,0,0,1-.23,0l-.68,0a.33.33,0,0,1-.23-.1l-.32-.34a10.23,10.23,0,0,0-1.33-1.89,8,8,0,0,0-1.59-1.46c-.45-.28-.65-.57-.59-.69l-.27-.21s-.13.45.11.68,1.24,1.16,1.67,1.56.9.75,1,1.07l.3.77.43.48-1.87-.16s-.31-.66-.68-.8a1.6,1.6,0,0,0-.86,0,12.41,12.41,0,0,1-1.1-1,1,1,0,0,1,0-.57l-.19-.11s-.46.49.22,1.14l1.06,1a.69.69,0,0,1,.74-.14,1.91,1.91,0,0,1,.66.74s3.58.43,3.58.43l1.42-.44,2.54.15Z"/><path class="cls-40" d="M219.71,216.22a6.89,6.89,0,0,1,1.52-2.16,13.51,13.51,0,0,1,3.3-2.66c1.16-.65,1.73-.88,2.43-1.32s1.77-1.06,2.13-1.36.7-.53.7-.53a3.72,3.72,0,0,1,.92,1.14,9.74,9.74,0,0,1,.68,1.54l.38-.48a7.34,7.34,0,0,0-1-2,4,4,0,0,0-1-.82l-1.8,1.33a13.17,13.17,0,0,1-2,1.15,15.15,15.15,0,0,0-2.74,1.57,14.21,14.21,0,0,0-3.41,3.08,5.57,5.57,0,0,0-.9,2.08l2.26-.06.54-.33Z"/><path class="cls-40" d="M217.17,217.05a2.45,2.45,0,0,0,.06-1.62c-.26-1-.69-1.11-1.06-1.72a3.63,3.63,0,0,1-.63-1.85c0-.07.17-.48.17-.48a4.28,4.28,0,0,0,.71,1.82,6.53,6.53,0,0,1,1.24,1.94,5.53,5.53,0,0,1,.06,1.88Z"/><path class="cls-37" d="M228.27,221.06c.72-1.89,1.26-3.78.53-3.86a11.15,11.15,0,0,1-.74,2.93c-.65,1.48-3.1,8.72-3.34,11-.07.58-.13,1.17-.2,1.75a40.79,40.79,0,0,0-.38,4.47c0,1.42,0,2.44,0,2.72l2.16.07c2.07,0,3.67,0,4.11,0a6.09,6.09,0,0,1,.86-2.43c.11-.21.23-.43.34-.67-.06-.26-.12-.52-.19-.78a9,9,0,0,0-1.52,3.29l-5.31.18a56.88,56.88,0,0,1,.41-6.75A96.92,96.92,0,0,1,228.27,221.06Z"/><path class="cls-37" d="M231.43,232.14a4.39,4.39,0,0,0-.18,2.41,19.63,19.63,0,0,0,.5,2.08l0-.07c.21-.45.39-.79.54-1.06a3.47,3.47,0,0,0,.56-2,7.18,7.18,0,0,1,.44-2,11,11,0,0,0,.65-3.23h0a14,14,0,0,1,.44-2.16c.08-.36.18-.71.25-1.06l.21-1c-.18.49-.44,1.24-.58,1.79-.22.89-.8,3.42-1.15,4.44a13,13,0,0,0-.82,3.22,5.19,5.19,0,0,1-.45,1.86,7.59,7.59,0,0,1-.44-2.1,9.34,9.34,0,0,1,0-1.31Z"/><path class="cls-37" d="M221.78,246.42c.67.52,1.32,1,2,1.5a16.54,16.54,0,0,0,2.36,1.32,13.06,13.06,0,0,0,2.59.84,11.44,11.44,0,0,0,2.74.21,14.31,14.31,0,0,1-5.38-1.57,9.11,9.11,0,0,1-3.11-2.4,8.94,8.94,0,0,1,3.25-2,20.84,20.84,0,0,1,2.53-1l-.5,0a4.57,4.57,0,0,0-1.23.26s-2.33.93-3.11,1.36A25.19,25.19,0,0,0,221.78,246.42Z"/><path class="cls-37" d="M233.64,234.06a13.62,13.62,0,0,1,.59-2.92c.14-.62.49-1.63.64-2.06a10.05,10.05,0,0,1-.82.91c-.13.6-.3,1.13-.45,1.63a7,7,0,0,0-.44,1.92,3.61,3.61,0,0,1-.59,2.08c-.15.27-.33.6-.53,1s-.39.78-.56,1.11a5.54,5.54,0,0,0-.85,2.45v.39a1,1,0,0,1,.24,0,2.59,2.59,0,0,1,.67-1.47,3.4,3.4,0,0,1,1.51-.91,3.1,3.1,0,0,0-2,1.27,7.82,7.82,0,0,1,1.3-2.47A4.71,4.71,0,0,0,233.64,234.06Z"/><path class="cls-37" d="M247.89,233.58a21.76,21.76,0,0,1-.89,5.48q.44-1.19.78-2.4a15.64,15.64,0,0,0,.5-2.43h0a19.28,19.28,0,0,0-.54-6.22c0,.29-.07.57-.12.86s-.05.34-.08.51A36.93,36.93,0,0,1,247.89,233.58Z"/><path class="cls-37" d="M247,239.06v0Z"/><path class="cls-37" d="M224,216.08a17.15,17.15,0,0,0,2.43-1,20.69,20.69,0,0,0,3.18-2.14c.53-.43.88-.7,1.25-1,.14.07.53.26.74.34a12.18,12.18,0,0,0,1.29.52,3.06,3.06,0,0,1,1.15.4,1.85,1.85,0,0,0,.78.52c.38.1,1.33.19,2,.4a18.06,18.06,0,0,1,1.75.7,7.8,7.8,0,0,0,1,.33,11.27,11.27,0,0,1-1.09-.45,15.24,15.24,0,0,0-1.85-.78c-.4-.09-1.11-.31-1.46-.38s-.44-.12-.58-.29a1.47,1.47,0,0,0-.57-.43c-.33-.18-.66-.21-1.18-.43s-1.67-.86-1.67-.86l-.1.1-.28-.16a11.75,11.75,0,0,1-1,.81c-.26.17-.54.39-.84.63a11.29,11.29,0,0,1-3.44,2.07c-1.3.41-3,1.14-3.86,1.5.28,0,.56,0,.84.06S223.38,216.33,224,216.08Z"/><path class="cls-37" d="M231.8,211.35s2.28.88,3.6,1.42,2.14,1.23,3.37,1.73a11.08,11.08,0,0,0,2.55.69,8.12,8.12,0,0,1,2.06,1l-1.49.63a8.82,8.82,0,0,1,2.21-.6,7.86,7.86,0,0,0-3.77-1.65,8.54,8.54,0,0,1-3.35-1.47,9.69,9.69,0,0,0-2-1,19.44,19.44,0,0,1-3.2-1.41c-.13.14-.43.45-.82.8.14.07.27.15.4.23Z"/><path class="cls-37" d="M248.38,235.1c-.1.4-.22.8-.34,1.19a14.14,14.14,0,0,1-.48,3.27c-.45,1.29-4,6.94-5.37,9.75s-2.19,4.16-2.78,4.59-2,.48-3.83,1.34a27,27,0,0,1-3.72,1.61,17.26,17.26,0,0,1-4.58.75,7.88,7.88,0,0,0-2.36.55,4.44,4.44,0,0,1-2.49-2,7.14,7.14,0,0,1-1.28-3.07,4.22,4.22,0,0,0-.37-1.73,10.93,10.93,0,0,1-.95-3.29,3.15,3.15,0,0,1,.54-1.77,20.14,20.14,0,0,0,6,3.13l-.27-.11a15.58,15.58,0,0,1-2.43-1.27c-.74-.46-1.44-1-2.13-1.5h0l-.09-.07a2.25,2.25,0,0,0-1-.53.77.77,0,0,1-.37-.11,1.08,1.08,0,0,0-.24-.1,4.25,4.25,0,0,0-.42,3.17,18.49,18.49,0,0,0,.67,2.15,4.68,4.68,0,0,1,.43,1.67,9,9,0,0,0,2,4.56,3.66,3.66,0,0,0,3.45,1.26,9.48,9.48,0,0,1,3.24-.52,12.05,12.05,0,0,0,5.86-1.89,6.28,6.28,0,0,1,2.18-.68c1.3-.25,2.65-.51,3.24-1.69.36-.72,1.36-2.5,2.51-4.56,2-3.64,4.55-8.17,5-9.4A12.21,12.21,0,0,0,248.38,235.1Z"/><path class="cls-37" d="M232.6,240.68c-.71.1-1.43.07-2.1.21,0,0-2.05.46-2.54,1.1a6.49,6.49,0,0,0-.72,1.28,5.13,5.13,0,0,1,.65-.1,6.93,6.93,0,0,1,.84-1.23,4.14,4.14,0,0,1,2.42-.94,14.77,14.77,0,0,0,2.37-.53A7.21,7.21,0,0,1,232.6,240.68Z"/><path class="cls-37" d="M235.08,239.79l.48-.22a9.12,9.12,0,0,1,1-.35,8.41,8.41,0,0,1,1.65-.3l.44,0a7.06,7.06,0,0,0-2.81.48,10.15,10.15,0,0,1-2.84.79,11.76,11.76,0,0,1-1.84.1c0,.1,0,.2,0,.3.49,0,1,0,1.45-.08a10.18,10.18,0,0,0,2-.49Z"/><path class="cls-37" d="M235,224.37l-.12.76c-.07.36-.15.71-.23,1.07a15.94,15.94,0,0,0-.36,2.14,9,9,0,0,1-.12,1.21,8,8,0,0,0,.73-.81,8.42,8.42,0,0,0,.74-1.27,4.78,4.78,0,0,1,.9-1.2c.23-.24.48-.45.73-.67a4.65,4.65,0,0,1,.4-.32,5.9,5.9,0,0,0-2,1.74,5.93,5.93,0,0,1-1,1.36,7,7,0,0,1,.1-1.42C234.84,226.5,234.89,225.27,235,224.37Z"/><path class="cls-37" d="M243.71,216.39a10.94,10.94,0,0,0-1.86.48,11.08,11.08,0,0,0-2.37,1.19A12,12,0,0,1,244,216.7a8.69,8.69,0,0,1,1.71,2.13,19.18,19.18,0,0,1,1.28,6.35,51,51,0,0,1-.2,6.2c-.17,1.59-.33,2.44-.33,2.44s.12-.36.29-.91c.06-.24.12-.48.17-.72.13-.56.23-1.11.32-1.67s.17-1.12.23-1.68.1-1.11.11-1.67h0v0a25.1,25.1,0,0,0-.82-7.23,7.25,7.25,0,0,0-2.32-3.51,3.92,3.92,0,0,0-.59.05Z"/><path class="cls-37" d="M213.26,213.84a5.41,5.41,0,0,0-1.4.9,6.77,6.77,0,0,0-1,1.15,7.43,7.43,0,0,1,3.92-2.18,2.93,2.93,0,0,0,.83,2.54,5.59,5.59,0,0,1-.4-3.13A15.33,15.33,0,0,0,213.26,213.84Z"/><path class="cls-37" d="M211.74,214.59c-1,.53-1.83,1.08-2.51,1.52l-1,.6-1,.57a6.93,6.93,0,0,0-1.1,1.09c.16-.1.46-.29.91-.53a24.82,24.82,0,0,0,2.26-1.41c.6-.43,1.25-.87,1.25-.87a19.08,19.08,0,0,0-.85,2c-.22.51-.65,1.45-.65,1.45.58-1,1-2,1.55-3a6.62,6.62,0,0,1,1.06-1.37Z"/><path class="cls-37" d="M194.87,231.51a3.85,3.85,0,0,0-1.43,2.19,8.5,8.5,0,0,1-.78,1.71c-.12.17-.24.36-.37.57l.21-.08a4.6,4.6,0,0,1,.89-.21,5.43,5.43,0,0,1,.9,0,2.82,2.82,0,0,1,.82.14h0a4.91,4.91,0,0,0-2.21-.3,8.3,8.3,0,0,0,.6-1c.26-.55.66-2,.86-2.27a2.64,2.64,0,0,1,.8-.67,2.14,2.14,0,0,0,.42-.34,2,2,0,0,0,.33.93,2.47,2.47,0,0,0,.93.79.83.83,0,0,1-.15-.11,2.54,2.54,0,0,1-.86-1.27,2.37,2.37,0,0,1-.1-.84A3.19,3.19,0,0,1,194.87,231.51Z"/><path class="cls-37" d="M195.14,235.8h0Z"/><path class="cls-37" d="M201.75,229.11c0-.06-.07-.17-.14-.32C201.66,228.9,201.71,229,201.75,229.11Z"/><path class="cls-37" d="M202.16,220.3c-1,.53-1.91,1-2.24,1.93a6.94,6.94,0,0,1-.35.8,3.86,3.86,0,0,0-.25,1.55,2.51,2.51,0,0,0,.18.81l.09.16a2.22,2.22,0,0,1-.06-1.07,5,5,0,0,1,.69-1.9,3.33,3.33,0,0,1,2.12-1.78,11,11,0,0,0,2.54-1.65,7.9,7.9,0,0,0-1.28,3.4c-.22,1.4-.15,2.08-.41,3.88a40.79,40.79,0,0,0-.55,4.9,21.88,21.88,0,0,0,.13,2.75.46.46,0,0,0,.07.07,5.3,5.3,0,0,0,.58.51,20.32,20.32,0,0,1-.15-6c0-.58.14-1.15.23-1.76a33.47,33.47,0,0,0,.4-3.6,9.06,9.06,0,0,1,2.6-5.58l-.2.11-1.27.73c-.27.16-.47.3-.69.45a16,16,0,0,1-1.61,1C202.54,220.11,202.34,220.21,202.16,220.3Z"/><path class="cls-37" d="M197.83,252.28a15.77,15.77,0,0,0,2.95,1.17,4,4,0,0,0,1.52.06c-.17,0-.36,0-.58-.07a13.76,13.76,0,0,1-3.67-1.53,15.15,15.15,0,0,0-2.38-1.2,10.52,10.52,0,0,1,2,.5,29.71,29.71,0,0,1,2.73,1.48,7.57,7.57,0,0,0,2.7.64,4.53,4.53,0,0,0,.77-.34l-.47-.08a11.66,11.66,0,0,1-4.73-1.53h0a8.79,8.79,0,0,0-.83-.51,2.94,2.94,0,0,0-.93-.27,9.46,9.46,0,0,0-2,0,9.62,9.62,0,0,1,2-.14,2.91,2.91,0,0,1,1,.23h0a3.15,3.15,0,0,1-.35-.52c-1.13-2.13-.78-3.92,1.31-6.86l.81-1.14c1.19-1.69,1.8-2.55,2.51-3l-5-.53h0c-.51-.06-1-.14-1.54-.15a6.55,6.55,0,0,0-1.65.15,6,6,0,0,0-1.54.61l0,0a10.12,10.12,0,0,1,1.17-.34,9.79,9.79,0,0,1,4.05,0c2,.26,3.43.56,3.43.56a26,26,0,0,0-2.59,3.22,14.2,14.2,0,0,0-2.09,4.15,3.08,3.08,0,0,0,.54,3.16s-1.08.08-1.66.1a4.47,4.47,0,0,1-1.91.06,7.79,7.79,0,0,1-2.65-2.93,15.27,15.27,0,0,1-1-2.41,2.75,2.75,0,0,1,.68-1.76,3.4,3.4,0,0,0-.82,1,2.2,2.2,0,0,0-.25.69,1.29,1.29,0,0,0,.06.68c.15.26.3.58.47,1,.71,1.54,1.77,3.88,3.81,4.28A19.27,19.27,0,0,1,197.83,252.28Z"/><path class="cls-37" d="M196,231.38a2,2,0,0,1,.35-.95c.37-.55.56-.72,1.17-1.74a7.68,7.68,0,0,0,1-2.43,6.49,6.49,0,0,1,.4-1.25,1.74,1.74,0,0,0,.63,1.09,6.62,6.62,0,0,1,1.2,1.35c.51.71,1,1.66,1,1.66-.24-.53-.51-1.05-.8-1.56a7,7,0,0,0-1-1.41c-.1-.11-.21-.19-.32-.3a1.51,1.51,0,0,1-.26-.38,2.44,2.44,0,0,1-.23-.87,3.86,3.86,0,0,1,0-.76,8.51,8.51,0,0,0-.91,2,17.49,17.49,0,0,1-2.07,4.37A1.91,1.91,0,0,0,196,231.38Z"/><path class="cls-37" d="M190.48,242.86a11.8,11.8,0,0,1,1.38-.8,12.2,12.2,0,0,1,1.33-.59l.13-.05a10.46,10.46,0,0,0-3.33,1.43s.35-1,.53-1.51-.12-.8,0-1.08a9.52,9.52,0,0,1,.41-1.08c.12-.28.57-1.08.94-1.74s.72-1.18.87-1.41l-.12.05a1.49,1.49,0,0,0-.6.41c-.92,1.53-1.91,3.47-1.77,4.21a4.05,4.05,0,0,1-.43,1.85,9.15,9.15,0,0,0-.54,1.74l.14-.28A4,4,0,0,1,190.48,242.86Z"/><path class="cls-37" d="M223.86,239.62c-.7,0-2.1-.47-3.19-.45s-3.1.19-3.76.19a10.25,10.25,0,0,1-1.62-.13c-1-.11-6.09-.56-6.09-.56s-1.52-7-1.55-7.16-.15-.27-.47-.21-1.14.16-1.14.16a9.49,9.49,0,0,1-.08-1.92,11.79,11.79,0,0,1,.38-2.56c.1-.39.42-1.31.42-1.31a12.27,12.27,0,0,0-1.23,3.37,15.89,15.89,0,0,0,0,2.48l-2.3.41s-.14.42,0,.41l3-.46,1-.13.43,2.19,1.05,5.12s-2.68-.14-3.3-.22a11.15,11.15,0,0,0-1.4,0l-.35.32,10.05.9a3.51,3.51,0,0,0-2,2.07,31.66,31.66,0,0,1-3.18,4.77,10.37,10.37,0,0,1-1.58,1.85,11.92,11.92,0,0,1-1.53,2.08,3.28,3.28,0,0,0-1.24,1.49,1.32,1.32,0,0,0,.12.79l.45-.06a.9.9,0,0,1,0-1c.39-.47.91-.76,1.11-1.1a16.44,16.44,0,0,1,1.27-1.67l1.09-1.2s.9-1.06,1.37-1.78,1.46-2.29,1.46-2.29l.94-1.44.89-1.18a5.91,5.91,0,0,1,1.46-1.09c.59-.21,1.28-.4,1.28-.4l.62.11s1.55,0,2.15,0,1-.21,1.68-.21a4.46,4.46,0,0,1,1.45.19c.34.1,2.08.25,2.08.25H224l0-.53Z"/><path class="cls-37" d="M218.62,246.78l-2.74.85s-2,1.58-2.94,2.23c0,0,.94,6.57,1,7s1.85,1.75,3.08,2.5,3.07,1.91,3.07,1.91l4.76-2.05,1.46.17-6.45,3.11-3.67-2.48-3-2.34-.27-.63-1.1-7.77L214,248l1.25-1.11,1-.45,2-.68.91-.17-.29.52Z"/><path class="cls-37" d="M225.46,203h-.35l-1,0-1.11,0-1,.12-1.53-.06-1.06.17H219a2.29,2.29,0,0,1-.35,0l.23.2h0v0l.23.15.71.27-.25-.4a1.42,1.42,0,0,0,.41,0,4.53,4.53,0,0,1,1.47,0,3.76,3.76,0,0,0,1.57-.1,5.65,5.65,0,0,1,1.52-.09h0l-.18.38.78-.39h0Z"/><path class="cls-42" d="M229.37,192.21a3.53,3.53,0,0,1,.54,1.62,14.05,14.05,0,0,0,.18,1.88,2.56,2.56,0,0,1,.37,1.17c0,.52-.08,2.57-.08,2.57l.12,0,.27-2.79-.37-1.32,0-1.22-.43-1.72-.22-.31Z"/><path class="cls-37" d="M213.47,192.46c0-.54-.18-1.88-.22-2.24a2.38,2.38,0,0,0-.21,1.23l.22,2.29a6.84,6.84,0,0,1,.37-.65S213.49,192.94,213.47,192.46Z"/><path class="cls-37" d="M217,189.89l.08,0Z"/><path class="cls-37" d="M231.82,188.85a12,12,0,0,0-9.6-4.79h-.28a9.54,9.54,0,0,0-8.9,5.51,1.35,1.35,0,0,0-.12.69,12.74,12.74,0,0,1,2.47-3.15,10.25,10.25,0,0,1,2.18-1.55,12.06,12.06,0,0,0-3.86,3.14,15.21,15.21,0,0,1,2.73-2.87,10.74,10.74,0,0,1,6-1.59,11.05,11.05,0,0,1,6,1.86c2.34,1.5,3.45,3.1,3.47,3.48a21.3,21.3,0,0,1,0,2.14,6.27,6.27,0,0,1-.07,1c.1.14.2.27.29.41l.09-2.85A2.21,2.21,0,0,0,231.82,188.85Z"/><path class="cls-37" d="M223.89,188.75l.23.05Z"/><path class="cls-37" d="M230.68,191.78a10.64,10.64,0,0,0-2-1.39,15.7,15.7,0,0,0-2.31-1l-1.21-.37-1.23-.29a12.94,12.94,0,0,1,6.47,3.22,22.68,22.68,0,0,0-3.2-1.9,13,13,0,0,0-4.23-1.07,10.51,10.51,0,0,0-5.6,1.24,9.4,9.4,0,0,0-3.41,3.24,8.94,8.94,0,0,1,4.05-4,9.45,9.45,0,0,0-1.46.82,8.42,8.42,0,0,0-1.36,1.16,8.54,8.54,0,0,0-1.1,1.38l-.24.4a3.42,3.42,0,0,0-.41,2h0c1.53-4.34,5.54-5.91,8.89-5.91a14.15,14.15,0,0,1,8.18,3.13,5.06,5.06,0,0,1,1.65,2l0-.79a5,5,0,0,0-.62-.95A7,7,0,0,0,230.68,191.78Z"/><path class="cls-37" d="M212,191.09c.33-.09.45-.23.54-.21s.07.5.15,1.18.13,1.13.18,1.41a1.09,1.09,0,0,1,0,.37,1.11,1.11,0,0,0,.13-.48l-.26-2.63c0-.15-.09-.19-.21-.1a2,2,0,0,1-.22.16,1.64,1.64,0,0,1-1,.21A1.35,1.35,0,0,0,212,191.09Z"/><path class="cls-37" d="M213,194.28s0,0,0-.05l0-.44a.91.91,0,0,1-.11.16,1,1,0,0,1-.52.3l-.09,0a1,1,0,0,0,.47,0l.17,1.17a.88.88,0,0,1-.37.24,1.19,1.19,0,0,1-.52,0,1.79,1.79,0,0,0,.64.27,1,1,0,0,1,.52-.22l-.14-1.43Z"/><path class="cls-37" d="M215.19,185c.35.25.17.8-.32,1.15s-1.06,1.11-1.21,1.16-.28-.2-.67-.86-1.68-1-1.68-1a3.43,3.43,0,0,1,.85.44,2.38,2.38,0,0,1,.67.67,2.86,2.86,0,0,1,.36.87,1,1,0,0,0,.18.38c.06.08.3.11.57-.22a9.92,9.92,0,0,1,2.07-2,.29.29,0,0,0-.06-.51l-.23-.12a3.38,3.38,0,0,1-.87-1,7.94,7.94,0,0,0-.74-1.08,4.88,4.88,0,0,0-1-.92,7.7,7.7,0,0,1,1.14,1.66A3.24,3.24,0,0,0,215.19,185Z"/><path class="cls-37" d="M212.49,186.69c.21.65.31,1.07.41,1.3s.26.36-.09,1a11.78,11.78,0,0,0-.52,1.3c-.18.4-1.06.68-1.06.68a1.63,1.63,0,0,0,1-.31,1.5,1.5,0,0,0,.43-.8h0v0h0a7.83,7.83,0,0,1,.59-1.19.66.66,0,0,0,0-.71h0a1.26,1.26,0,0,1-.18-.46,3.08,3.08,0,0,0-.27-.86,2.43,2.43,0,0,0-.6-.68,3.3,3.3,0,0,0-.81-.49S212.29,186,212.49,186.69Z"/><path class="cls-37" d="M208.84,186.76a6.45,6.45,0,0,1,.74-1.88c.33-.74,0-2.27.13-3a2.69,2.69,0,0,1,1.21-1.81,31.57,31.57,0,0,1,3.44-2.4,10.65,10.65,0,0,1,1.38-.68,4.25,4.25,0,0,0-.72,0,2,2,0,0,0-.55.15,11.3,11.3,0,0,0-1.58,1l-.63.46c-1.95,1.45-3,2.25-2.87,3.4a6,6,0,0,1-.58,3.75,1.18,1.18,0,0,0,0,.94Z"/><path class="cls-37" d="M217.81,183.9a1,1,0,0,1-.59.84,1.28,1.28,0,0,1-1,.08,2,2,0,0,1-1.09-1,5.87,5.87,0,0,0-1.94-1.9,4.93,4.93,0,0,1,1,.88,8.08,8.08,0,0,1,.8,1,3.26,3.26,0,0,0,.88.93,1.29,1.29,0,0,0,.58.22A1.85,1.85,0,0,0,217,185a.17.17,0,0,0,.1,0c.21-.11.43-.22.66-.32a.59.59,0,0,0,.33-.79,1.78,1.78,0,0,0-.28-.45c-.26-.32-.63-.59-.89-.95a5.32,5.32,0,0,1-1-2.37,5.24,5.24,0,0,0,.68,2.15C217.19,183.26,217.79,183.49,217.81,183.9Z"/><path class="cls-37" d="M217.68,176.56c.58-.15,1.16-.3,1.76-.4a4.6,4.6,0,0,1,.91-.08,5.49,5.49,0,0,1,.9.09,5.15,5.15,0,0,0-2.29,0,10.76,10.76,0,0,1-2,.26s.94-.29,1.71-.57a4,4,0,0,1,2.46-.22c1,.21,3.09.73,4.7,1.16a9.12,9.12,0,0,1,3,1.62,3.55,3.55,0,0,0-1.74-.48,6.73,6.73,0,0,1-2.22-.45,7.48,7.48,0,0,0,1.17.5,5.71,5.71,0,0,0,.71.19c.24.05.49.07.73.11a7.93,7.93,0,0,1,1.44.42l1,.46c-.29-.59-1.28-1.94-4.34-2.68l-1.68-.42c-2.81-.71-4-1-5.66-.33a15.6,15.6,0,0,1-1.72.57c-.41.12-.8.23-1.21.39h.55A6.24,6.24,0,0,0,217.68,176.56Z"/><path class="cls-37" d="M210.78,189.36a.76.76,0,0,0,0-.2A1.18,1.18,0,0,1,210.78,189.36Z"/><path class="cls-37" d="M211.42,195.44a4.44,4.44,0,0,1-.76-1.17,6.64,6.64,0,0,1-.44-1.3,10.52,10.52,0,0,1-.21-1.25.31.31,0,0,0,0-.09,7.79,7.79,0,0,0,.47,2.68,3.65,3.65,0,0,0,1.46,1.92,3.37,3.37,0,0,1-2-2,12.3,12.3,0,0,1-.69-4.29,6.81,6.81,0,0,0-.51-2.46,2.62,2.62,0,0,0,.92.76,2.31,2.31,0,0,1,1.11,1.17,1.92,1.92,0,0,0-.54-1,3.07,3.07,0,0,0-.42-.38c-.15-.12-.31-.22-.46-.35a2.67,2.67,0,0,1-.74-.89,1.49,1.49,0,0,1-.14-.55,3,3,0,0,0,.17,1.93,8.1,8.1,0,0,1,.33,1.52c0,.1,0,.22,0,.35.08,1.67.31,6.07,3.33,6.61a1.18,1.18,0,0,1,.15-.49A2.52,2.52,0,0,1,211.42,195.44Z"/><path class="cls-37" d="M231.29,186.13a6.6,6.6,0,0,0,1.42-.85,6.29,6.29,0,0,1,1.53-.72l.81-.23.41-.11.21-.06.12,0a11.66,11.66,0,0,0-1.42.35,6.25,6.25,0,0,0-1.77.75,6.23,6.23,0,0,1-1.69.85,1.19,1.19,0,0,1-1.34-.13c-.43-.26-.89-.47-.3-.86a2.88,2.88,0,0,1,1.53-.51,4.3,4.3,0,0,0,1.38-.25,3.32,3.32,0,0,0,1.1-.67,2.92,2.92,0,0,1-1.21.63,3.87,3.87,0,0,1-.68.12l-.69,0a3.5,3.5,0,0,0-1.29.37,2.25,2.25,0,0,0-.49.37.4.4,0,0,0,.07.64l.53.37a1.08,1.08,0,0,0,.67.22,1.92,1.92,0,0,0,.32,0A3.52,3.52,0,0,0,231.29,186.13Z"/><path class="cls-37" d="M235.09,191a5.53,5.53,0,0,1-2-1.07c-.55-.51-.71-1-.64-1.07s.57-.07.91-.19a6.86,6.86,0,0,0,1-.46,3.31,3.31,0,0,1,1.78-.29,2.78,2.78,0,0,0-1.25.06,8.45,8.45,0,0,0-1.19.43,5.31,5.31,0,0,1-1.27.27c-.51.05,0,.77,0,.82a2.88,2.88,0,0,0,1,.93,5.31,5.31,0,0,0,1.29.56c.46.13.94.23,1.4.37a4.81,4.81,0,0,1,1.29.62,4.73,4.73,0,0,0-.9-.54A12,12,0,0,0,235.09,191Z"/><path class="cls-37" d="M232.37,195.27a1,1,0,0,1,.82.16c.31.25.44.77.41,1.59a3.51,3.51,0,0,1-.24,1.17,4.54,4.54,0,0,0,1.66-.67,2.82,2.82,0,0,0,.72-.7c.2-.28.39-.58.6-.86a7.37,7.37,0,0,1,.68-.8c.13-.12.26-.24.4-.35s.29-.21.42-.33a6.05,6.05,0,0,0,1.21-1.67,6.09,6.09,0,0,1-1.41,1.6,4.64,4.64,0,0,0-1.66,1.38,3.37,3.37,0,0,1-2,1.51s.22-1.27-.28-1.83a1.17,1.17,0,0,0-.95-.51s.07-2.1.08-2.3.42,0,.94-.12.69-.19,1,0,.33.35.74.46a2.09,2.09,0,0,1,1.15.92,2.07,2.07,0,0,0-.93-.92,2.08,2.08,0,0,1-.32-.12,1,1,0,0,1-.28-.21,1,1,0,0,0-.24-.22.62.62,0,0,0-.3-.09,3.94,3.94,0,0,0-.67,0,2.9,2.9,0,0,1-.72,0,.84.84,0,0,1-.55-.28c-.23-.32-.24,1.52-.24,1.52h0Z"/><path class="cls-37" d="M235.93,192.88a2.19,2.19,0,0,1-.85-.66c-.21-.25-.49-.23-1.08-.2s-1.05-.18-1.17-.57a1.71,1.71,0,0,1-.08-1c.11-.09.19,0,.61.27a3.34,3.34,0,0,0,1.54.52,9.2,9.2,0,0,1,1.56.3,6.1,6.1,0,0,1,1,.43,4.73,4.73,0,0,0-1.31-.55c-.46-.13-.94-.2-1.42-.31a6.06,6.06,0,0,1-1.36-.52,4.53,4.53,0,0,1-.46-.3.25.25,0,0,0-.41.18l0,.56a1.29,1.29,0,0,0,.17.69l.09.11a1,1,0,0,0,.5.33,2.39,2.39,0,0,0,.66.06,4.09,4.09,0,0,1,.7,0,.73.73,0,0,1,.35.12,1.85,1.85,0,0,1,.24.25,1.27,1.27,0,0,0,.25.21c.09.05.2.08.31.13a2.08,2.08,0,0,1,.9,1A1.72,1.72,0,0,0,235.93,192.88Z"/><path class="cls-37" d="M240,190.18a22,22,0,0,1,0-2.93,4.21,4.21,0,0,0-1.75-3.7,5.37,5.37,0,0,1,1.29,3.47c0,2.45-.16,3.64,0,4.57a3.43,3.43,0,0,1-1,3.14,9.15,9.15,0,0,0-2.16,2.29,4.38,4.38,0,0,1-2.1,1.82,4,4,0,0,1-.75.21l.16-.34a3.73,3.73,0,0,0,2-1.21c.87-1,.94-1.65,1.8-2.41a4.87,4.87,0,0,0,1.18-1.43,4.8,4.8,0,0,1-.69.87c-.13.12-.28.23-.41.34a3.24,3.24,0,0,0-.38.36,7.1,7.1,0,0,0-.65.8l-.56.88a3.22,3.22,0,0,1-.75.77,4.89,4.89,0,0,1-1.91.8,7.78,7.78,0,0,1-.44.75c-.1.15-.19.3-.28.45.77-.19,3.26-.92,4.23-2.48a9.13,9.13,0,0,1,1.75-2,3.9,3.9,0,0,0,1.38-1.8A10.89,10.89,0,0,0,240,190.18Z"/><path class="cls-37" d="M227.44,183.58c-.47.5-.54.92-.94.81s-.93-.37-1.79-.56-1.2-.14-1.29-.43.07-.5.34-1.25a6.42,6.42,0,0,0,.21-2.44c0-.91-.14-1.74-.14-1.74,0,.51,0,1,0,1.53s0,1-.08,1.52a6.58,6.58,0,0,1-.37,1.5l-.25.66a.55.55,0,0,0,.48.72,12.83,12.83,0,0,1,2.9.7.45.45,0,0,0,.57-.25h0a2.2,2.2,0,0,1,.32-.53,5.07,5.07,0,0,1,.94-.75,5,5,0,0,0,.83-.82,5.58,5.58,0,0,0,.62-1,5.14,5.14,0,0,1-.94,1.22C228.29,183,227.91,183.09,227.44,183.58Z"/><path class="cls-37" d="M222.87,182.62c-.21.47-.22.92-1.2,1a13.27,13.27,0,0,0-2,.18c-.69.13-.95.28-1.18-.17a2.57,2.57,0,0,0-1-1,4.5,4.5,0,0,1-1.61-2.52,5.2,5.2,0,0,0,1.1,2.29c.27.33.64.57.94.91a2,2,0,0,1,.34.49.79.79,0,0,0,.89.38,11.16,11.16,0,0,1,3.06-.34h0a.57.57,0,0,0,.57-.4c.11-.33.27-.64.39-1a6.74,6.74,0,0,0,.44-1.45,14.86,14.86,0,0,0,.14-1.51c0-.5.06-1,0-1.52,0,0-.1,1.28-.23,2.24A9.67,9.67,0,0,1,222.87,182.62Z"/><path class="cls-37" d="M234.91,187.82c-.73.18-1.14.34-1.48.41a2.31,2.31,0,0,1-1.28,0,4.37,4.37,0,0,1-1.34-1.29c-.09-.17-.11-.23.2-.33a6.28,6.28,0,0,0,1.73-1.05,4,4,0,0,1,1.63-.92l1.18-.43-.08,0-.41.12-.8.26a6,6,0,0,0-1.47.76,6.12,6.12,0,0,1-1.41.92,4,4,0,0,1-.81.3c-.44.1.53,1,.89,1.38h0a1.52,1.52,0,0,0,1,.46,4,4,0,0,0,1.22-.2,10.15,10.15,0,0,1,1.22-.38,2.86,2.86,0,0,1,1.27,0A2.47,2.47,0,0,0,234.91,187.82Z"/><path class="cls-37" d="M229.73,184.3a4.45,4.45,0,0,0-1.29.74c-.17.18-.54,0-.72-.1s-.38-.58.2-1.12a7.08,7.08,0,0,0,1.32-1.39,5.6,5.6,0,0,0,.58-1.16,6.37,6.37,0,0,1-.56,1,4.75,4.75,0,0,1-.8.88,4.29,4.29,0,0,0-.86.77,1.54,1.54,0,0,0-.26.49h0a.5.5,0,0,0,.26.62l.35.18a.61.61,0,0,0,.7-.11,2.45,2.45,0,0,1,.67-.47,3.77,3.77,0,0,1,1.36-.33l.7,0a5.25,5.25,0,0,0,.68-.08,2.86,2.86,0,0,0,1.22-.57,4.11,4.11,0,0,1-1.4.49A12.1,12.1,0,0,0,229.73,184.3Z"/><path class="cls-37" d="M234.33,182.42a4.31,4.31,0,0,0,1.42.87,8.47,8.47,0,0,1,2.19,1.32c.87.64,1.4,2.79,1.4,2.79a4.5,4.5,0,0,0-1.08-2.89,5.2,5.2,0,0,0-2.17-1.36s-.24-.1-.77-.27A5.28,5.28,0,0,1,234.33,182.42Z"/><path class="cls-43" d="M224.17,194.07l.77,0a14.82,14.82,0,0,1,2.38-.28,2.85,2.85,0,0,1,1.6.56c.06,0,.14,0,.1-.08a3.22,3.22,0,0,0-2.51-1.41c-2.38-.16-2.63.07-2.67.86A.34.34,0,0,0,224.17,194.07Z"/><path class="cls-43" d="M219.24,194.15H220a.33.33,0,0,0,.32-.33c0-.79-.25-1-2.49-.9a3,3,0,0,0-2.38,1.36s0,.11.09.07a2.81,2.81,0,0,1,1.52-.53C218.21,193.76,218.44,194.13,219.24,194.15Z"/><path class="cls-41" d="M223.75,202.78c-.14,0-.28,0-.44,0a3.42,3.42,0,0,0-.45,0,5.93,5.93,0,0,1-.83.12,7.91,7.91,0,0,1-.84,0,3.27,3.27,0,0,0-.88,0q-.42.09-.84.15a4,4,0,0,1-.85.05,4.74,4.74,0,0,0,1.72,0,3.88,3.88,0,0,1,.83,0,6.42,6.42,0,0,0,.88,0,7.35,7.35,0,0,0,.86-.14l.41-.06h.42a9,9,0,0,0,1.72,0c-.29,0-.57,0-.86-.07Z"/><path class="cls-44" d="M222,203.83a8.36,8.36,0,0,1-1.73-.14,5.75,5.75,0,0,1-1.69-.58,2.89,2.89,0,0,0,1.5,1.17,4.8,4.8,0,0,0,1.95.33,4.86,4.86,0,0,0,1.92-.48,3.79,3.79,0,0,0,1.47-1.18,11,11,0,0,1-1.71.62A7.23,7.23,0,0,1,222,203.83Z"/><path class="cls-43" d="M222.19,205.9A5.6,5.6,0,0,0,221,206a3.59,3.59,0,0,0-1.07.38,6,6,0,0,1,1.1-.24,9.68,9.68,0,0,1,2.24,0,3.66,3.66,0,0,1,.56.1,3.58,3.58,0,0,1,.54.14,3.51,3.51,0,0,0-1.07-.39A5.48,5.48,0,0,0,222.19,205.9Z"/><path class="cls-43" d="M231.21,199.25l.06-.08a.84.84,0,0,1,.36.19.55.55,0,0,1,.18.39.65.65,0,0,0-.13-.44,1,1,0,0,0-.32-.23l0,0a.9.9,0,0,0,.2-.23.85.85,0,0,0,.1-.54.88.88,0,0,0,.42-.36.7.7,0,0,0,.09-.54.76.76,0,0,1-.55.78.64.64,0,0,0-.35-.37.73.73,0,0,1,.28.46.91.91,0,0,1-.11.51.65.65,0,0,1-.17.2.64.64,0,0,0-.18.25.94.94,0,0,0-.05.57A1.6,1.6,0,0,1,231.21,199.25Z"/><path class="cls-40" d="M226.15,219.63a.69.69,0,1,0-.73-.69A.7.7,0,0,0,226.15,219.63Z"/><path class="cls-40" d="M211.56,220.73a.69.69,0,1,0-.73-.69A.7.7,0,0,0,211.56,220.73Z"/><path class="cls-40" d="M208.16,230.91a.73.73,0,1,0,.73-.69A.71.71,0,0,0,208.16,230.91Z"/><path class="cls-40" d="M222.42,231a.7.7,0,1,0-.72-.69A.71.71,0,0,0,222.42,231Z"/><path class="cls-41" d="M222.86,201.29a.24.24,0,0,0,.24-.23.24.24,0,0,0-.23-.25l-2.37-.13,1.5-3a.24.24,0,1,0-.43-.21l-1.66,3.35a.24.24,0,0,0,0,.23.25.25,0,0,0,.2.12l2.73.15Z"/><ellipse class="cls-43" cx="218.09" cy="196.42" rx="0.7" ry="1.05"/><ellipse class="cls-43" cx="225.94" cy="196.42" rx="0.7" ry="1.05"/></g><path class="cls-32" d="M171.62,214.52s-.85,17.9-12.82,22.37C158.8,236.89,172.77,234.86,171.62,214.52Z"/><path class="cls-32" d="M172.9,222s-.6,10-5.44,12.47C167.46,234.46,173.79,233.89,172.9,222Z"/><path class="cls-32" d="M112.83,206.6s3.81-17.52,16.35-19.94C129.18,186.66,115.06,186.35,112.83,206.6Z"/><path class="cls-32" d="M112.81,199s2.25-9.79,7.43-11.4C120.24,187.62,113.9,187.14,112.81,199Z"/><polygon class="cls-4" points="208.31 88.28 206.41 94.96 199.72 96.87 206.41 98.78 208.31 105.47 210.22 98.78 216.91 96.87 210.22 94.96 208.31 88.28"/><polygon class="cls-4" points="243.1 147.21 241.96 151.18 237.98 152.32 241.96 153.46 243.1 157.44 244.24 153.46 248.21 152.32 244.24 151.18 243.1 147.21"/></g></g></svg>